<?xml version="1.0" encoding="UTF-8" standalone="no"?>
<!-- Created with Inkscape (http://www.inkscape.org/) -->

<svg
   width="600"
   height="400"
   viewBox="0 0 158.75 105.83334"
   version="1.1"
   id="svg8"
   inkscape:version="1.1.2 (0a00cf5339, 2022-02-04)"
   sodipodi:docname="f4.svg"
   xmlns:inkscape="http://www.inkscape.org/namespaces/inkscape"
   xmlns:sodipodi="http://sodipodi.sourceforge.net/DTD/sodipodi-0.dtd"
   xmlns:xlink="http://www.w3.org/1999/xlink"
   xmlns="http://www.w3.org/2000/svg"
   xmlns:svg="http://www.w3.org/2000/svg"
   xmlns:rdf="http://www.w3.org/1999/02/22-rdf-syntax-ns#"
   xmlns:cc="http://creativecommons.org/ns#"
   xmlns:dc="http://purl.org/dc/elements/1.1/">
  <defs
     id="defs2">
    <marker
       inkscape:stockid="Arrow1Mend"
       orient="auto"
       refY="0.0"
       refX="0.0"
       id="marker2656"
       style="overflow:visible;"
       inkscape:isstock="true">
      <path
         id="path2654"
         d="M 0.0,0.0 L 5.0,-5.0 L -12.5,0.0 L 5.0,5.0 L 0.0,0.0 z "
         style="fill-rule:evenodd;stroke:#ff1d1d;stroke-width:1pt;stroke-opacity:1;fill:#ff1d1d;fill-opacity:1"
         transform="scale(0.4) rotate(180) translate(10,0)" />
    </marker>
    <marker
       inkscape:isstock="true"
       style="overflow:visible;"
       id="marker1467"
       refX="0.0"
       refY="0.0"
       orient="auto"
       inkscape:stockid="Arrow1Mend">
      <path
         transform="scale(0.4) rotate(180) translate(10,0)"
         style="fill-rule:evenodd;stroke:#000000;stroke-width:1pt;stroke-opacity:0.99115026;fill:#8ba0d1;fill-opacity:0.2745098"
         d="M 0.0,0.0 L 5.0,-5.0 L -12.5,0.0 L 5.0,5.0 L 0.0,0.0 z "
         id="path1465" />
    </marker>
    <marker
       inkscape:isstock="true"
       style="overflow:visible;"
       id="marker1409"
       refX="0.0"
       refY="0.0"
       orient="auto"
       inkscape:stockid="Arrow1Mend">
      <path
         transform="scale(0.4) rotate(180) translate(10,0)"
         style="fill-rule:evenodd;stroke:#000000;stroke-width:1pt;stroke-opacity:0.99115026;fill:#8ba0d1;fill-opacity:0.2745098"
         d="M 0.0,0.0 L 5.0,-5.0 L -12.5,0.0 L 5.0,5.0 L 0.0,0.0 z "
         id="path1407" />
    </marker>
    <marker
       inkscape:isstock="true"
       style="overflow:visible;"
       id="marker1311"
       refX="0.0"
       refY="0.0"
       orient="auto"
       inkscape:stockid="Arrow1Mend">
      <path
         transform="scale(0.4) rotate(180) translate(10,0)"
         style="fill-rule:evenodd;stroke:#ff1d1d;stroke-width:1pt;stroke-opacity:1;fill:#ff1d1d;fill-opacity:1"
         d="M 0.0,0.0 L 5.0,-5.0 L -12.5,0.0 L 5.0,5.0 L 0.0,0.0 z "
         id="path1309" />
    </marker>
    <marker
       inkscape:isstock="true"
       style="overflow:visible;"
       id="marker1271"
       refX="0.0"
       refY="0.0"
       orient="auto"
       inkscape:stockid="Arrow1Mend">
      <path
         transform="scale(0.4) rotate(180) translate(10,0)"
         style="fill-rule:evenodd;stroke:#000000;stroke-width:1pt;stroke-opacity:0.99115026;fill:#8ba0d1;fill-opacity:0.2745098"
         d="M 0.0,0.0 L 5.0,-5.0 L -12.5,0.0 L 5.0,5.0 L 0.0,0.0 z "
         id="path1269" />
    </marker>
    <marker
       inkscape:isstock="true"
       style="overflow:visible;"
       id="marker1161"
       refX="0.0"
       refY="0.0"
       orient="auto"
       inkscape:stockid="Arrow1Mend">
      <path
         transform="scale(0.4) rotate(180) translate(10,0)"
         style="fill-rule:evenodd;stroke:#000000;stroke-width:1pt;stroke-opacity:0.99115026;fill:#8ba0d1;fill-opacity:0.2745098"
         d="M 0.0,0.0 L 5.0,-5.0 L -12.5,0.0 L 5.0,5.0 L 0.0,0.0 z "
         id="path1159" />
    </marker>
    <marker
       inkscape:isstock="true"
       style="overflow:visible;"
       id="marker1139"
       refX="0.0"
       refY="0.0"
       orient="auto"
       inkscape:stockid="Arrow1Mend">
      <path
         transform="scale(0.4) rotate(180) translate(10,0)"
         style="fill-rule:evenodd;stroke:#000000;stroke-width:1pt;stroke-opacity:0.99115026;fill:#8ba0d1;fill-opacity:0.2745098"
         d="M 0.0,0.0 L 5.0,-5.0 L -12.5,0.0 L 5.0,5.0 L 0.0,0.0 z "
         id="path1137" />
    </marker>
    <marker
       inkscape:isstock="true"
       style="overflow:visible"
       id="marker1311-3"
       refX="0"
       refY="0"
       orient="auto"
       inkscape:stockid="Arrow1Mend">
      <path
         inkscape:connector-curvature="0"
         transform="matrix(-0.4,0,0,-0.4,-4,0)"
         style="fill:#ff1d1d;fill-opacity:1;fill-rule:evenodd;stroke:#ff1d1d;stroke-width:1.00000003pt;stroke-opacity:1"
         d="M 0,0 5,-5 -12.5,0 5,5 Z"
         id="path1309-8" />
    </marker>
    <marker
       inkscape:isstock="true"
       style="overflow:visible"
       id="marker1311-31"
       refX="0"
       refY="0"
       orient="auto"
       inkscape:stockid="Arrow1Mend">
      <path
         inkscape:connector-curvature="0"
         transform="matrix(-0.4,0,0,-0.4,-4,0)"
         style="fill:#ff1d1d;fill-opacity:1;fill-rule:evenodd;stroke:#ff1d1d;stroke-width:1.00000003pt;stroke-opacity:1"
         d="M 0,0 5,-5 -12.5,0 5,5 Z"
         id="path1309-89" />
    </marker>
    <marker
       inkscape:isstock="true"
       style="overflow:visible"
       id="marker1311-4"
       refX="0"
       refY="0"
       orient="auto"
       inkscape:stockid="Arrow1Mend">
      <path
         inkscape:connector-curvature="0"
         transform="matrix(-0.4,0,0,-0.4,-4,0)"
         style="fill:#ff1d1d;fill-opacity:1;fill-rule:evenodd;stroke:#ff1d1d;stroke-width:1.00000003pt;stroke-opacity:1"
         d="M 0,0 5,-5 -12.5,0 5,5 Z"
         id="path1309-3" />
    </marker>
    <g
       id="g6053">
      <symbol
         overflow="visible"
         id="symbol6698">
        <path
           style="stroke:none;"
           d=""
           id="path6705" />
      </symbol>
      <symbol
         overflow="visible"
         id="symbol4861">
        <path
           style="stroke:none;"
           d="M 0.875 -0.59375 C 0.84375 -0.4375 0.78125 -0.203125 0.78125 -0.15625 C 0.78125 0.015625 0.921875 0.109375 1.078125 0.109375 C 1.203125 0.109375 1.375 0.03125 1.453125 -0.171875 C 1.46875 -0.203125 1.796875 -1.5625 1.84375 -1.75 C 1.921875 -2.078125 2.109375 -2.765625 2.15625 -3.046875 C 2.203125 -3.171875 2.484375 -3.640625 2.71875 -3.859375 C 2.796875 -3.921875 3.09375 -4.1875 3.515625 -4.1875 C 3.78125 -4.1875 3.921875 -4.0625 3.9375 -4.0625 C 3.640625 -4.015625 3.421875 -3.78125 3.421875 -3.515625 C 3.421875 -3.359375 3.53125 -3.171875 3.796875 -3.171875 C 4.0625 -3.171875 4.34375 -3.40625 4.34375 -3.765625 C 4.34375 -4.109375 4.03125 -4.40625 3.515625 -4.40625 C 2.875 -4.40625 2.4375 -3.921875 2.25 -3.640625 C 2.15625 -4.09375 1.796875 -4.40625 1.328125 -4.40625 C 0.875 -4.40625 0.6875 -4.015625 0.59375 -3.84375 C 0.421875 -3.5 0.296875 -2.90625 0.296875 -2.875 C 0.296875 -2.765625 0.390625 -2.765625 0.40625 -2.765625 C 0.515625 -2.765625 0.515625 -2.78125 0.578125 -3 C 0.75 -3.703125 0.953125 -4.1875 1.3125 -4.1875 C 1.46875 -4.1875 1.609375 -4.109375 1.609375 -3.734375 C 1.609375 -3.515625 1.578125 -3.40625 1.453125 -2.890625 Z M 0.875 -0.59375 "
           id="path59" />
      </symbol>
      <symbol
         overflow="visible"
         id="symbol7435">
        <path
           style="stroke:none;"
           d="M 2.046875 -3.984375 L 2.984375 -3.984375 C 3.1875 -3.984375 3.296875 -3.984375 3.296875 -4.1875 C 3.296875 -4.296875 3.1875 -4.296875 3.015625 -4.296875 L 2.140625 -4.296875 C 2.5 -5.71875 2.546875 -5.90625 2.546875 -5.96875 C 2.546875 -6.140625 2.421875 -6.234375 2.25 -6.234375 C 2.21875 -6.234375 1.9375 -6.234375 1.859375 -5.875 L 1.46875 -4.296875 L 0.53125 -4.296875 C 0.328125 -4.296875 0.234375 -4.296875 0.234375 -4.109375 C 0.234375 -3.984375 0.3125 -3.984375 0.515625 -3.984375 L 1.390625 -3.984375 C 0.671875 -1.15625 0.625 -0.984375 0.625 -0.8125 C 0.625 -0.265625 1 0.109375 1.546875 0.109375 C 2.5625 0.109375 3.125 -1.34375 3.125 -1.421875 C 3.125 -1.53125 3.046875 -1.53125 3.015625 -1.53125 C 2.921875 -1.53125 2.90625 -1.5 2.859375 -1.390625 C 2.4375 -0.34375 1.90625 -0.109375 1.5625 -0.109375 C 1.359375 -0.109375 1.25 -0.234375 1.25 -0.5625 C 1.25 -0.8125 1.28125 -0.875 1.3125 -1.046875 Z M 2.046875 -3.984375 "
           id="path8907" />
      </symbol>
      <symbol
         overflow="visible"
         id="symbol6864">
        <path
           style="stroke:none;"
           d=""
           id="path7448" />
      </symbol>
      <symbol
         overflow="visible"
         id="symbol5690">
        <path
           style="stroke:none;"
           d="M 3.59375 -2.21875 C 3.59375 -2.984375 3.5 -3.546875 3.1875 -4.03125 C 2.96875 -4.34375 2.53125 -4.625 1.984375 -4.625 C 0.359375 -4.625 0.359375 -2.71875 0.359375 -2.21875 C 0.359375 -1.71875 0.359375 0.140625 1.984375 0.140625 C 3.59375 0.140625 3.59375 -1.71875 3.59375 -2.21875 Z M 1.984375 -0.0625 C 1.65625 -0.0625 1.234375 -0.25 1.09375 -0.8125 C 1 -1.21875 1 -1.796875 1 -2.3125 C 1 -2.828125 1 -3.359375 1.09375 -3.734375 C 1.25 -4.28125 1.6875 -4.4375 1.984375 -4.4375 C 2.359375 -4.4375 2.71875 -4.203125 2.84375 -3.796875 C 2.953125 -3.421875 2.96875 -2.921875 2.96875 -2.3125 C 2.96875 -1.796875 2.96875 -1.28125 2.875 -0.84375 C 2.734375 -0.203125 2.265625 -0.0625 1.984375 -0.0625 Z M 1.984375 -0.0625 "
           id="path8980" />
      </symbol>
      <symbol
         overflow="visible"
         id="symbol8359">
        <path
           style="stroke:none;"
           d=""
           id="path1087" />
      </symbol>
      <symbol
         overflow="visible"
         id="symbol5005">
        <path
           style="stroke:none;"
           d="M 3.671875 -2.21875 C 3.71875 -2.40625 3.796875 -2.75 3.796875 -2.78125 C 3.796875 -2.921875 3.6875 -3 3.5625 -3 C 3.4375 -3 3.3125 -2.921875 3.265625 -2.796875 C 3.25 -2.75 3.171875 -2.453125 3.125 -2.28125 C 3.03125 -1.875 3.03125 -1.875 2.921875 -1.484375 C 2.84375 -1.09375 2.828125 -1.03125 2.8125 -0.84375 C 2.84375 -0.703125 2.78125 -0.5625 2.625 -0.359375 C 2.53125 -0.25 2.390625 -0.125 2.15625 -0.125 C 1.875 -0.125 1.53125 -0.21875 1.53125 -0.765625 C 1.53125 -1.125 1.71875 -1.640625 1.859375 -2 C 1.984375 -2.296875 2 -2.359375 2 -2.484375 C 2 -2.8125 1.71875 -3.078125 1.34375 -3.078125 C 0.640625 -3.078125 0.328125 -2.125 0.328125 -2 C 0.328125 -1.921875 0.421875 -1.921875 0.453125 -1.921875 C 0.546875 -1.921875 0.546875 -1.953125 0.578125 -2.03125 C 0.75 -2.609375 1.046875 -2.875 1.328125 -2.875 C 1.4375 -2.875 1.5 -2.796875 1.5 -2.640625 C 1.5 -2.46875 1.4375 -2.328125 1.40625 -2.234375 C 1 -1.21875 1 -1.078125 1 -0.859375 C 1 -0.03125 1.75 0.0625 2.125 0.0625 C 2.265625 0.0625 2.59375 0.0625 2.90625 -0.390625 C 3.078125 -0.078125 3.453125 0.0625 3.875 0.0625 C 4.5 0.0625 4.8125 -0.46875 4.953125 -0.75 C 5.25 -1.34375 5.4375 -2.203125 5.4375 -2.53125 C 5.4375 -3.046875 5.140625 -3.078125 5.09375 -3.078125 C 4.90625 -3.078125 4.703125 -2.890625 4.703125 -2.703125 C 4.703125 -2.59375 4.78125 -2.53125 4.828125 -2.5 C 5 -2.359375 5.09375 -2.15625 5.09375 -1.9375 C 5.09375 -1.84375 4.796875 -0.125 3.90625 -0.125 C 3.34375 -0.125 3.34375 -0.625 3.34375 -0.75 C 3.34375 -0.9375 3.375 -1.046875 3.46875 -1.4375 Z M 3.671875 -2.21875 "
           id="path2428" />
      </symbol>
      <symbol
         overflow="visible"
         id="symbol8821">
        <path
           style="stroke:none;"
           d="M 2.84375 -2.75 L 3.515625 -2.75 C 3.65625 -2.75 3.75 -2.75 3.75 -2.90625 C 3.75 -3 3.65625 -3 3.53125 -3 L 2.890625 -3 C 3.046875 -3.890625 3.09375 -4.203125 3.15625 -4.40625 C 3.1875 -4.5625 3.34375 -4.703125 3.515625 -4.703125 C 3.515625 -4.703125 3.703125 -4.703125 3.84375 -4.625 C 3.546875 -4.53125 3.53125 -4.28125 3.53125 -4.25 C 3.53125 -4.09375 3.65625 -3.984375 3.8125 -3.984375 C 4 -3.984375 4.203125 -4.140625 4.203125 -4.40625 C 4.203125 -4.734375 3.875 -4.90625 3.515625 -4.90625 C 3.203125 -4.90625 2.859375 -4.734375 2.671875 -4.390625 C 2.53125 -4.125 2.484375 -3.8125 2.328125 -3 L 1.78125 -3 C 1.640625 -3 1.546875 -3 1.546875 -2.84375 C 1.546875 -2.75 1.640625 -2.75 1.765625 -2.75 L 2.28125 -2.75 C 2.28125 -2.703125 1.84375 -0.203125 1.671875 0.546875 C 1.640625 0.703125 1.515625 1.21875 1.1875 1.21875 C 1.171875 1.21875 1.015625 1.21875 0.875 1.140625 C 1.15625 1.046875 1.1875 0.796875 1.1875 0.765625 C 1.1875 0.609375 1.0625 0.5 0.90625 0.5 C 0.71875 0.5 0.515625 0.65625 0.515625 0.921875 C 0.515625 1.234375 0.84375 1.421875 1.1875 1.421875 C 1.625 1.421875 1.9375 0.96875 2.015625 0.8125 C 2.265625 0.34375 2.4375 -0.515625 2.453125 -0.59375 Z M 2.84375 -2.75 "
           id="path4319" />
      </symbol>
      <symbol
         overflow="visible"
         id="symbol1334">
        <path
           style="stroke:none;"
           d=""
           id="path4402" />
      </symbol>
      <symbol
         overflow="visible"
         id="symbol7535">
        <path
           style="stroke:none;"
           d="M 1.984375 -3.171875 C 1.984375 -3.3125 1.96875 -3.3125 1.796875 -3.3125 C 1.453125 -3 0.890625 -3 0.796875 -3 L 0.71875 -3 L 0.71875 -2.78125 L 0.796875 -2.78125 C 0.90625 -2.78125 1.234375 -2.796875 1.53125 -2.921875 L 1.53125 -0.421875 C 1.53125 -0.28125 1.53125 -0.21875 1 -0.21875 L 0.75 -0.21875 L 0.75 0 C 1.015625 -0.015625 1.46875 -0.015625 1.75 -0.015625 C 2.046875 -0.015625 2.484375 -0.015625 2.765625 0 L 2.765625 -0.21875 L 2.515625 -0.21875 C 1.984375 -0.21875 1.984375 -0.28125 1.984375 -0.421875 Z M 1.984375 -3.171875 "
           id="path3416" />
      </symbol>
      <symbol
         overflow="visible"
         id="symbol1478">
        <path
           style="stroke:none;"
           d="M 2.9375 -0.96875 L 2.71875 -0.96875 C 2.71875 -0.875 2.65625 -0.5625 2.578125 -0.515625 C 2.546875 -0.484375 2.125 -0.484375 2.046875 -0.484375 L 1.078125 -0.484375 C 1.40625 -0.71875 1.765625 -1 2.0625 -1.203125 C 2.515625 -1.515625 2.9375 -1.796875 2.9375 -2.328125 C 2.9375 -2.96875 2.328125 -3.3125 1.625 -3.3125 C 0.953125 -3.3125 0.453125 -2.9375 0.453125 -2.4375 C 0.453125 -2.1875 0.671875 -2.140625 0.75 -2.140625 C 0.875 -2.140625 1.03125 -2.234375 1.03125 -2.4375 C 1.03125 -2.609375 0.90625 -2.71875 0.75 -2.71875 C 0.890625 -2.953125 1.1875 -3.09375 1.515625 -3.09375 C 2 -3.09375 2.40625 -2.8125 2.40625 -2.328125 C 2.40625 -1.90625 2.109375 -1.578125 1.734375 -1.265625 L 0.515625 -0.234375 C 0.46875 -0.1875 0.453125 -0.1875 0.453125 -0.15625 L 0.453125 0 L 2.765625 0 Z M 2.9375 -0.96875 "
           id="path1414" />
      </symbol>
      <symbol
         overflow="visible"
         id="symbol9884">
        <path
           style="stroke:none;"
           d=""
           id="path8600" />
      </symbol>
      <symbol
         overflow="visible"
         id="symbol86">
        <path
           style="stroke:none;"
           d="M 2.5625 -1.921875 C 2.484375 -1.90625 2.34375 -1.796875 2.34375 -1.625 C 2.34375 -1.5 2.4375 -1.421875 2.5625 -1.421875 C 2.671875 -1.421875 2.859375 -1.515625 2.859375 -1.765625 C 2.859375 -2.140625 2.375 -2.203125 2.109375 -2.203125 C 1.265625 -2.203125 0.53125 -1.515625 0.53125 -0.859375 C 0.53125 -0.421875 0.859375 0.0625 1.609375 0.0625 C 1.703125 0.0625 2.09375 0.0625 2.4375 -0.078125 C 2.765625 -0.203125 2.96875 -0.4375 2.96875 -0.484375 C 2.96875 -0.53125 2.90625 -0.609375 2.859375 -0.609375 C 2.84375 -0.609375 2.828125 -0.59375 2.75 -0.515625 C 2.53125 -0.265625 2.109375 -0.109375 1.609375 -0.109375 C 1.1875 -0.109375 0.984375 -0.34375 0.984375 -0.6875 C 0.984375 -1.203125 1.328125 -2.03125 2.109375 -2.03125 C 2.15625 -2.03125 2.40625 -2.03125 2.5625 -1.921875 Z M 2.5625 -1.921875 "
           id="path5636" />
      </symbol>
      <symbol
         overflow="visible"
         id="symbol4676">
        <path
           style="stroke:none;"
           d=""
           id="path2568" />
      </symbol>
      <symbol
         overflow="visible"
         id="symbol7561">
        <path
           style="stroke:none;"
           d="M 2.9375 -6.375 C 2.9375 -6.625 2.9375 -6.640625 2.703125 -6.640625 C 2.078125 -6 1.203125 -6 0.890625 -6 L 0.890625 -5.6875 C 1.09375 -5.6875 1.671875 -5.6875 2.1875 -5.953125 L 2.1875 -0.78125 C 2.1875 -0.421875 2.15625 -0.3125 1.265625 -0.3125 L 0.953125 -0.3125 L 0.953125 0 C 1.296875 -0.03125 2.15625 -0.03125 2.5625 -0.03125 C 2.953125 -0.03125 3.828125 -0.03125 4.171875 0 L 4.171875 -0.3125 L 3.859375 -0.3125 C 2.953125 -0.3125 2.9375 -0.421875 2.9375 -0.78125 Z M 2.9375 -6.375 "
           id="path6979" />
      </symbol>
      <symbol
         overflow="visible"
         id="symbol713">
        <path
           style="stroke:none;"
           d="M 1.265625 -0.765625 L 2.328125 -1.796875 C 3.875 -3.171875 4.46875 -3.703125 4.46875 -4.703125 C 4.46875 -5.84375 3.578125 -6.640625 2.359375 -6.640625 C 1.234375 -6.640625 0.5 -5.71875 0.5 -4.828125 C 0.5 -4.28125 1 -4.28125 1.03125 -4.28125 C 1.203125 -4.28125 1.546875 -4.390625 1.546875 -4.8125 C 1.546875 -5.0625 1.359375 -5.328125 1.015625 -5.328125 C 0.9375 -5.328125 0.921875 -5.328125 0.890625 -5.3125 C 1.109375 -5.96875 1.65625 -6.328125 2.234375 -6.328125 C 3.140625 -6.328125 3.5625 -5.515625 3.5625 -4.703125 C 3.5625 -3.90625 3.078125 -3.125 2.515625 -2.5 L 0.609375 -0.375 C 0.5 -0.265625 0.5 -0.234375 0.5 0 L 4.203125 0 L 4.46875 -1.734375 L 4.234375 -1.734375 C 4.171875 -1.4375 4.109375 -1 4 -0.84375 C 3.9375 -0.765625 3.28125 -0.765625 3.0625 -0.765625 Z M 1.265625 -0.765625 "
           id="path4936" />
      </symbol>
    </g>
    <g
       id="g1632">
      <symbol
         overflow="visible"
         id="symbol5860">
        <path
           style="stroke:none;"
           d=""
           id="path9240" />
      </symbol>
      <symbol
         overflow="visible"
         id="symbol698">
        <path
           style="stroke:none;"
           d="M 4.953125 -4.8125 C 4.953125 -4.84375 4.921875 -4.90625 4.859375 -4.90625 C 4.8125 -4.90625 4.8125 -4.890625 4.71875 -4.796875 L 4.375 -4.40625 C 4.109375 -4.78125 3.671875 -4.90625 3.25 -4.90625 C 2.265625 -4.90625 1.390625 -4.109375 1.390625 -3.296875 C 1.390625 -3.203125 1.421875 -2.921875 1.625 -2.65625 C 1.859375 -2.390625 2.125 -2.328125 2.59375 -2.203125 C 2.734375 -2.171875 3.078125 -2.09375 3.1875 -2.0625 C 3.40625 -2.015625 3.828125 -1.859375 3.828125 -1.34375 C 3.828125 -0.78125 3.234375 -0.109375 2.453125 -0.109375 C 1.828125 -0.109375 1.09375 -0.328125 1.09375 -1.09375 C 1.09375 -1.171875 1.109375 -1.328125 1.140625 -1.453125 C 1.140625 -1.484375 1.140625 -1.484375 1.140625 -1.484375 C 1.140625 -1.578125 1.0625 -1.578125 1.03125 -1.578125 C 0.9375 -1.578125 0.921875 -1.5625 0.90625 -1.4375 L 0.546875 -0.046875 C 0.53125 -0.015625 0.515625 0.015625 0.515625 0.0625 C 0.515625 0.09375 0.546875 0.140625 0.625 0.140625 C 0.65625 0.140625 0.671875 0.125 0.765625 0.046875 C 0.84375 -0.046875 1.015625 -0.265625 1.09375 -0.34375 C 1.46875 0.0625 2 0.140625 2.421875 0.140625 C 3.484375 0.140625 4.328125 -0.765625 4.328125 -1.59375 C 4.328125 -1.890625 4.203125 -2.171875 4.046875 -2.328125 C 3.8125 -2.578125 3.703125 -2.609375 2.796875 -2.828125 C 2.65625 -2.859375 2.421875 -2.90625 2.359375 -2.9375 C 2.1875 -3 1.890625 -3.171875 1.890625 -3.5625 C 1.890625 -4.125 2.515625 -4.671875 3.234375 -4.671875 C 4 -4.671875 4.359375 -4.25 4.359375 -3.59375 C 4.359375 -3.5 4.328125 -3.34375 4.328125 -3.28125 C 4.328125 -3.171875 4.40625 -3.171875 4.453125 -3.171875 C 4.546875 -3.171875 4.5625 -3.21875 4.578125 -3.328125 Z M 4.953125 -4.8125 "
           id="path6854" />
      </symbol>
      <symbol
         overflow="visible"
         id="symbol9684">
        <path
           style="stroke:none;"
           d="M 1.3125 -0.546875 C 1.265625 -0.3125 1.25 -0.25 0.703125 -0.25 C 0.578125 -0.25 0.5 -0.25 0.5 -0.09375 C 0.5 0 0.578125 0 0.703125 0 L 3.1875 0 C 4.734375 0 6.21875 -1.421875 6.21875 -2.9375 C 6.21875 -3.953125 5.515625 -4.765625 4.390625 -4.765625 L 1.84375 -4.765625 C 1.703125 -4.765625 1.625 -4.765625 1.625 -4.609375 C 1.625 -4.515625 1.703125 -4.515625 1.859375 -4.515625 C 1.96875 -4.515625 2 -4.515625 2.125 -4.5 C 2.265625 -4.484375 2.265625 -4.46875 2.265625 -4.390625 C 2.265625 -4.390625 2.265625 -4.34375 2.25 -4.25 Z M 2.875 -4.265625 C 2.9375 -4.484375 2.9375 -4.515625 3.234375 -4.515625 L 4.125 -4.515625 C 4.90625 -4.515625 5.5625 -4.125 5.5625 -3.171875 C 5.5625 -3.015625 5.484375 -1.8125 4.796875 -1.015625 C 4.515625 -0.703125 3.921875 -0.25 3.0625 -0.25 L 2.125 -0.25 C 1.90625 -0.25 1.890625 -0.265625 1.890625 -0.328125 C 1.890625 -0.328125 1.890625 -0.359375 1.921875 -0.46875 Z M 2.875 -4.265625 "
           id="path9439" />
      </symbol>
      <symbol
         overflow="visible"
         id="symbol7546">
        <path
           style="stroke:none;"
           d="M 5.8125 -4 C 5.875 -4.265625 6 -4.5 6.546875 -4.515625 C 6.578125 -4.515625 6.6875 -4.515625 6.6875 -4.65625 C 6.6875 -4.703125 6.65625 -4.765625 6.578125 -4.765625 C 6.359375 -4.765625 6.09375 -4.734375 5.859375 -4.734375 C 5.6875 -4.734375 5.296875 -4.765625 5.125 -4.765625 C 5.09375 -4.765625 4.984375 -4.765625 4.984375 -4.609375 C 4.984375 -4.515625 5.078125 -4.515625 5.140625 -4.515625 C 5.46875 -4.5 5.578125 -4.390625 5.578125 -4.21875 C 5.578125 -4.171875 5.578125 -4.125 5.546875 -4.0625 L 4.796875 -1.015625 L 3.03125 -4.640625 C 2.96875 -4.765625 2.953125 -4.765625 2.78125 -4.765625 L 1.828125 -4.765625 C 1.703125 -4.765625 1.609375 -4.765625 1.609375 -4.609375 C 1.609375 -4.515625 1.6875 -4.515625 1.84375 -4.515625 C 1.984375 -4.515625 2.140625 -4.5 2.28125 -4.46875 L 1.359375 -0.75 C 1.296875 -0.484375 1.171875 -0.265625 0.625 -0.25 C 0.578125 -0.25 0.484375 -0.25 0.484375 -0.109375 C 0.484375 -0.03125 0.53125 0 0.578125 0 C 0.8125 0 1.078125 -0.03125 1.3125 -0.03125 C 1.484375 -0.03125 1.875 0 2.046875 0 C 2.125 0 2.1875 -0.03125 2.1875 -0.140625 C 2.1875 -0.25 2.109375 -0.25 2.03125 -0.25 C 1.59375 -0.265625 1.59375 -0.453125 1.59375 -0.546875 C 1.59375 -0.578125 1.59375 -0.609375 1.609375 -0.71875 L 2.515625 -4.28125 L 4.546875 -0.125 C 4.59375 0 4.625 0 4.703125 0 C 4.8125 0 4.8125 -0.015625 4.84375 -0.140625 Z M 5.8125 -4 "
           id="path56" />
      </symbol>
      <symbol
         overflow="visible"
         id="symbol9471">
        <path
           style="stroke:none;"
           d="M 2.953125 -1.125 C 2.90625 -0.984375 2.84375 -0.71875 2.84375 -0.71875 C 2.703125 -0.5 2.421875 -0.125 2 -0.125 C 1.515625 -0.125 1.515625 -0.578125 1.515625 -0.703125 C 1.515625 -1.109375 1.703125 -1.609375 1.90625 -2.125 C 1.953125 -2.265625 2 -2.359375 2 -2.46875 C 2 -2.84375 1.6875 -3.078125 1.34375 -3.078125 C 0.640625 -3.078125 0.328125 -2.125 0.328125 -2 C 0.328125 -1.921875 0.421875 -1.921875 0.453125 -1.921875 C 0.546875 -1.921875 0.546875 -1.953125 0.578125 -2.03125 C 0.734375 -2.59375 1.046875 -2.875 1.3125 -2.875 C 1.4375 -2.875 1.484375 -2.796875 1.484375 -2.640625 C 1.484375 -2.46875 1.4375 -2.328125 1.359375 -2.171875 C 0.984375 -1.203125 0.984375 -1 0.984375 -0.8125 C 0.984375 -0.703125 0.984375 -0.375 1.25 -0.15625 C 1.453125 0.015625 1.71875 0.0625 1.96875 0.0625 C 2.40625 0.0625 2.640625 -0.171875 2.875 -0.390625 C 3.03125 0.0625 3.484375 0.0625 3.578125 0.0625 C 3.8125 0.0625 4 -0.0625 4.125 -0.296875 C 4.28125 -0.578125 4.375 -0.96875 4.375 -1 C 4.375 -1.09375 4.28125 -1.09375 4.265625 -1.09375 C 4.15625 -1.09375 4.15625 -1.0625 4.109375 -0.875 C 4.015625 -0.546875 3.890625 -0.125 3.59375 -0.125 C 3.421875 -0.125 3.359375 -0.28125 3.359375 -0.46875 C 3.359375 -0.578125 3.421875 -0.84375 3.46875 -1.015625 C 3.515625 -1.203125 3.59375 -1.484375 3.625 -1.640625 L 3.78125 -2.265625 C 3.828125 -2.4375 3.90625 -2.75 3.90625 -2.78125 C 3.90625 -2.921875 3.796875 -3 3.671875 -3 C 3.421875 -3 3.359375 -2.796875 3.3125 -2.578125 Z M 2.953125 -1.125 "
           id="path316" />
      </symbol>
      <symbol
         overflow="visible"
         id="symbol3393">
        <path
           style="stroke:none;"
           d="M 2.84375 -2.75 L 3.515625 -2.75 C 3.65625 -2.75 3.75 -2.75 3.75 -2.90625 C 3.75 -3 3.65625 -3 3.53125 -3 L 2.890625 -3 C 3.046875 -3.890625 3.09375 -4.203125 3.15625 -4.40625 C 3.1875 -4.5625 3.34375 -4.703125 3.515625 -4.703125 C 3.515625 -4.703125 3.703125 -4.703125 3.84375 -4.625 C 3.546875 -4.53125 3.53125 -4.28125 3.53125 -4.25 C 3.53125 -4.09375 3.65625 -3.984375 3.8125 -3.984375 C 4 -3.984375 4.203125 -4.140625 4.203125 -4.40625 C 4.203125 -4.734375 3.875 -4.90625 3.515625 -4.90625 C 3.203125 -4.90625 2.859375 -4.734375 2.671875 -4.390625 C 2.53125 -4.125 2.484375 -3.8125 2.328125 -3 L 1.78125 -3 C 1.640625 -3 1.546875 -3 1.546875 -2.84375 C 1.546875 -2.75 1.640625 -2.75 1.765625 -2.75 L 2.28125 -2.75 C 2.28125 -2.703125 1.84375 -0.203125 1.671875 0.546875 C 1.640625 0.703125 1.515625 1.21875 1.1875 1.21875 C 1.171875 1.21875 1.015625 1.21875 0.875 1.140625 C 1.15625 1.046875 1.1875 0.796875 1.1875 0.765625 C 1.1875 0.609375 1.0625 0.5 0.90625 0.5 C 0.71875 0.5 0.515625 0.65625 0.515625 0.921875 C 0.515625 1.234375 0.84375 1.421875 1.1875 1.421875 C 1.625 1.421875 1.9375 0.96875 2.015625 0.8125 C 2.265625 0.34375 2.4375 -0.515625 2.453125 -0.59375 Z M 2.84375 -2.75 "
           id="path8648" />
      </symbol>
      <symbol
         overflow="visible"
         id="symbol8142">
        <path
           style="stroke:none;"
           d=""
           id="path6660" />
      </symbol>
      <symbol
         overflow="visible"
         id="symbol1411">
        <path
           style="stroke:none;"
           d="M 2.5625 -1.921875 C 2.484375 -1.90625 2.34375 -1.796875 2.34375 -1.625 C 2.34375 -1.5 2.4375 -1.421875 2.5625 -1.421875 C 2.671875 -1.421875 2.859375 -1.515625 2.859375 -1.765625 C 2.859375 -2.140625 2.375 -2.203125 2.109375 -2.203125 C 1.265625 -2.203125 0.53125 -1.515625 0.53125 -0.859375 C 0.53125 -0.421875 0.859375 0.0625 1.609375 0.0625 C 1.703125 0.0625 2.09375 0.0625 2.4375 -0.078125 C 2.765625 -0.203125 2.96875 -0.4375 2.96875 -0.484375 C 2.96875 -0.53125 2.90625 -0.609375 2.859375 -0.609375 C 2.84375 -0.609375 2.828125 -0.59375 2.75 -0.515625 C 2.53125 -0.265625 2.109375 -0.109375 1.609375 -0.109375 C 1.1875 -0.109375 0.984375 -0.34375 0.984375 -0.6875 C 0.984375 -1.203125 1.328125 -2.03125 2.109375 -2.03125 C 2.15625 -2.03125 2.40625 -2.03125 2.5625 -1.921875 Z M 2.5625 -1.921875 "
           id="path2982" />
      </symbol>
      <symbol
         overflow="visible"
         id="symbol7136">
        <path
           style="stroke:none;"
           d="M 1.96875 -3.109375 C 1.96875 -3.234375 1.890625 -3.328125 1.75 -3.328125 C 1.609375 -3.328125 1.453125 -3.1875 1.453125 -3.03125 C 1.453125 -2.890625 1.5625 -2.8125 1.671875 -2.8125 C 1.828125 -2.8125 1.96875 -2.953125 1.96875 -3.109375 Z M 2.203125 -0.71875 C 2.203125 -0.78125 2.125 -0.78125 2.109375 -0.78125 C 2.015625 -0.78125 2.015625 -0.765625 1.984375 -0.671875 C 1.90625 -0.40625 1.671875 -0.109375 1.421875 -0.109375 C 1.3125 -0.109375 1.28125 -0.1875 1.28125 -0.296875 C 1.28125 -0.40625 1.296875 -0.46875 1.34375 -0.5625 C 1.375 -0.65625 1.421875 -0.75 1.453125 -0.828125 C 1.46875 -0.875 1.65625 -1.328125 1.734375 -1.515625 C 1.765625 -1.609375 1.796875 -1.6875 1.796875 -1.765625 C 1.796875 -2 1.5625 -2.203125 1.25 -2.203125 C 0.734375 -2.203125 0.453125 -1.5625 0.453125 -1.4375 C 0.453125 -1.359375 0.53125 -1.359375 0.5625 -1.359375 C 0.640625 -1.359375 0.640625 -1.390625 0.671875 -1.453125 C 0.78125 -1.8125 1.015625 -2.03125 1.234375 -2.03125 C 1.328125 -2.03125 1.390625 -1.984375 1.390625 -1.84375 C 1.390625 -1.828125 1.390625 -1.765625 1.359375 -1.671875 C 1.328125 -1.578125 1.09375 -1.046875 1.03125 -0.875 C 0.984375 -0.78125 0.984375 -0.78125 0.921875 -0.609375 C 0.890625 -0.53125 0.859375 -0.46875 0.859375 -0.390625 C 0.859375 -0.125 1.109375 0.0625 1.40625 0.0625 C 1.921875 0.0625 2.203125 -0.59375 2.203125 -0.71875 Z M 2.203125 -0.71875 "
           id="path4682" />
      </symbol>
      <symbol
         overflow="visible"
         id="symbol7238">
        <path
           style="stroke:none;"
           d="M 1.484375 -0.8125 C 1.5 -0.890625 1.546875 -1.078125 1.5625 -1.15625 C 1.578125 -1.234375 1.609375 -1.3125 1.625 -1.375 C 1.640625 -1.453125 1.796875 -1.71875 1.96875 -1.859375 C 2.140625 -2 2.296875 -2.03125 2.46875 -2.03125 C 2.53125 -2.03125 2.765625 -2.03125 2.9375 -1.953125 C 2.71875 -1.875 2.71875 -1.671875 2.71875 -1.65625 C 2.71875 -1.578125 2.78125 -1.453125 2.9375 -1.453125 C 3.078125 -1.453125 3.25 -1.578125 3.25 -1.796875 C 3.25 -2.15625 2.71875 -2.203125 2.484375 -2.203125 C 2.359375 -2.203125 2.03125 -2.203125 1.6875 -1.8125 C 1.625 -2.078125 1.328125 -2.203125 1.09375 -2.203125 C 0.921875 -2.203125 0.78125 -2.125 0.640625 -1.921875 C 0.515625 -1.71875 0.453125 -1.453125 0.453125 -1.4375 C 0.453125 -1.359375 0.53125 -1.359375 0.5625 -1.359375 C 0.640625 -1.359375 0.640625 -1.375 0.6875 -1.5 C 0.765625 -1.796875 0.875 -2.03125 1.0625 -2.03125 C 1.234375 -2.03125 1.265625 -1.875 1.265625 -1.765625 C 1.265625 -1.703125 1.21875 -1.515625 1.1875 -1.375 C 1.15625 -1.25 1.109375 -1.046875 1.078125 -0.9375 L 0.96875 -0.484375 C 0.9375 -0.359375 0.875 -0.140625 0.875 -0.125 C 0.875 -0.015625 0.96875 0.0625 1.0625 0.0625 C 1.140625 0.0625 1.234375 0.015625 1.28125 -0.078125 C 1.3125 -0.109375 1.34375 -0.28125 1.375 -0.375 Z M 1.484375 -0.8125 "
           id="path6381" />
      </symbol>
    </g>
  </defs>
  <sodipodi:namedview
     id="base"
     pagecolor="#ffffff"
     bordercolor="#666666"
     borderopacity="1.0"
     inkscape:pageopacity="1"
     inkscape:pageshadow="2"
     inkscape:zoom="0.49497475"
     inkscape:cx="-180.81731"
     inkscape:cy="100.0051"
     inkscape:document-units="mm"
     inkscape:current-layer="g1636"
     showgrid="false"
     units="px"
     inkscape:window-width="1366"
     inkscape:window-height="648"
     inkscape:window-x="0"
     inkscape:window-y="32"
     inkscape:window-maximized="1"
     inkscape:pagecheckerboard="0" />
  <metadata
     id="metadata5">
    <rdf:RDF>
      <cc:Work
         rdf:about="">
        <dc:format>image/svg+xml</dc:format>
        <dc:type
           rdf:resource="http://purl.org/dc/dcmitype/StillImage" />
      </cc:Work>
    </rdf:RDF>
  </metadata>
  <g
     inkscape:label="Layer 1"
     inkscape:groupmode="layer"
     id="layer1"
     transform="translate(0, -191.167)">
    <g
       id="g1636"
       transform="translate(95.7631, 208.47)">
      <rect
         style="fill:#ffffff;fill-opacity:1;stroke:#000000;stroke-width:0.465;stroke-opacity:0.00519018"
         id="rect3063"
         width="158.24585"
         height="106.24099"
         x="-95.116539"
         y="-17.024191" />
      <g
         inkscape:label=""
         transform="translate(3.92814, 35.5186)"
         id="g1742" />
      <path
         style="fill:none;stroke:#000000;stroke-width:0.328089px;stroke-linecap:butt;stroke-linejoin:miter;stroke-opacity:1"
         d="M 28.188593,70.466471 V -7.6564718"
         id="path1937-35-1" />
      <rect
         style="fill:none;stroke:#000000;stroke-width:0.57661;stroke-opacity:1"
         id="rect1462"
         width="78.165062"
         height="78.12294"
         x="-47.693794"
         y="-7.6564713" />
      <path
         style="fill:none;stroke:#000000;stroke-width:0.328089px;stroke-linecap:butt;stroke-linejoin:miter;stroke-opacity:1"
         d="M -24.727534,70.466471 V -7.6564718"
         id="path1937" />
      <path
         style="fill:none;stroke:#000000;stroke-width:0.328089px;stroke-linecap:butt;stroke-linejoin:miter;stroke-opacity:1"
         d="M -11.182127,70.466471 V -7.6564708"
         id="path1937-3" />
      <path
         style="fill:none;stroke:#000000;stroke-width:0.328089px;stroke-linecap:butt;stroke-linejoin:miter;stroke-opacity:1"
         d="M -1.808145,70.466471 V -7.6564718"
         id="path1937-6" />
      <path
         style="fill:none;stroke:#000000;stroke-width:0.328089px;stroke-linecap:butt;stroke-linejoin:miter;stroke-opacity:1"
         d="M 5.4098188,70.466471 V -7.6564718"
         id="path1937-7" />
      <path
         style="fill:none;stroke:#000000;stroke-width:0.328089px;stroke-linecap:butt;stroke-linejoin:miter;stroke-opacity:1"
         d="M 11.315425,70.466471 V -7.6564708"
         id="path1937-5" />
      <path
         style="fill:none;stroke:#000000;stroke-width:0.328089px;stroke-linecap:butt;stroke-linejoin:miter;stroke-opacity:1"
         d="M 16.447679,70.466471 V -7.6564718"
         id="path1937-35" />
      <path
         style="fill:none;stroke:#000000;stroke-width:0.328089px;stroke-linecap:butt;stroke-linejoin:miter;stroke-opacity:1"
         d="M 20.85345,70.466471 V -7.6564718"
         id="path1937-35-6" />
      <path
         style="fill:none;stroke:#000000;stroke-width:0.328089px;stroke-linecap:butt;stroke-linejoin:miter;stroke-opacity:1"
         d="M 24.790524,70.466471 V -7.6564718"
         id="path1937-35-2" />
      <path
         style="fill:none;stroke:#000000;stroke-width:0.328089px;stroke-linecap:butt;stroke-linejoin:miter;stroke-opacity:1"
         d="M -47.693796,59.077081 H 30.471261"
         id="path2207" />
      <path
         style="fill:none;stroke:#000000;stroke-width:0.328089px;stroke-linecap:butt;stroke-linejoin:miter;stroke-opacity:1"
         d="M -47.693796,48.156389 H 30.471261"
         id="path2207-2" />
      <path
         style="fill:none;stroke:#000000;stroke-width:0.328089px;stroke-linecap:butt;stroke-linejoin:miter;stroke-opacity:1"
         d="M -47.693796,37.001347 H 30.471261"
         id="path2207-7" />
      <path
         style="fill:none;stroke:#000000;stroke-width:0.328089px;stroke-linecap:butt;stroke-linejoin:miter;stroke-opacity:1"
         d="M -47.693796,26.38531 H 30.471261"
         id="path2207-0" />
      <path
         style="fill:none;stroke:#000000;stroke-width:0.328089px;stroke-linecap:butt;stroke-linejoin:miter;stroke-opacity:1"
         d="M -47.693796,15.042788 H 30.471261"
         id="path2207-0-9" />
      <path
         style="fill:none;stroke:#000000;stroke-width:0.328089px;stroke-linecap:butt;stroke-linejoin:miter;stroke-opacity:1"
         d="M -47.693796,3.8877514 H 30.471261"
         id="path2207-0-3" />
      <path
         style="fill:none;stroke:#000000;stroke-width:0.328089px;stroke-linecap:butt;stroke-linejoin:miter;stroke-opacity:1"
         d="M -47.693796,70.466471 C -46.774421,52.738642 -40.432333,38.896915 -34.257918,27.984582 -28.734406,18.222621 -17.556405,10.878311 -3.4429752,6.4566811 6.4541448,3.3559885 13.05673,2.2218812 31.596276,1.3474166"
         id="path2458"
         sodipodi:nodetypes="cssc" />
      <text
         xml:space="preserve"
         style="font-style:normal;font-weight:normal;font-size:3.49962px;line-height:1.25;font-family:sans-serif;fill:#000000;fill-opacity:1;stroke:none;stroke-width:0.328089"
         x="-55.314827"
         y="-5.8851309"
         id="text6801"><tspan
           sodipodi:role="line"
           id="tspan6799"
           style="font-weight:bold;font-size:3.49962px;stroke-width:0.328089"
           x="-55.314827"
           y="-5.8851309">1.2</tspan></text>
      <text
         xml:space="preserve"
         style="font-style:normal;font-weight:normal;font-size:3.49962px;line-height:1.25;font-family:sans-serif;fill:#000000;fill-opacity:1;stroke:none;stroke-width:0.328089"
         x="-54.38728"
         y="5.1808157"
         id="text6801-0"><tspan
           sodipodi:role="line"
           id="tspan6799-6"
           style="font-weight:bold;font-size:3.49962px;stroke-width:0.328089"
           x="-54.38728"
           y="5.1808157">1.1</tspan></text>
      <text
         xml:space="preserve"
         style="font-style:normal;font-weight:normal;font-size:3.49962px;line-height:1.25;font-family:sans-serif;fill:#000000;fill-opacity:1;stroke:none;stroke-width:0.328089"
         x="-49.015553"
         y="74.457108"
         id="text6801-0-9"><tspan
           sodipodi:role="line"
           id="tspan6799-6-7"
           style="font-weight:bold;font-size:3.49962px;stroke-width:0.328089"
           x="-49.015553"
           y="74.457108">1.0</tspan></text>
      <text
         xml:space="preserve"
         style="font-style:normal;font-weight:normal;font-size:3.49962px;line-height:1.25;font-family:sans-serif;fill:#000000;fill-opacity:1;stroke:none;stroke-width:0.328089"
         x="-27.131088"
         y="74.457108"
         id="text6801-0-3"><tspan
           sodipodi:role="line"
           id="tspan6799-6-6"
           style="font-weight:bold;font-size:3.49962px;stroke-width:0.328089"
           x="-27.131088"
           y="74.457108">1.1</tspan></text>
      <text
         xml:space="preserve"
         style="font-style:normal;font-weight:normal;font-size:3.49962px;line-height:1.25;font-family:sans-serif;fill:#000000;fill-opacity:1;stroke:none;stroke-width:0.328089"
         x="-13.910442"
         y="74.77475"
         id="text6801-0-1"><tspan
           sodipodi:role="line"
           id="tspan6799-6-2"
           style="font-weight:bold;font-size:3.49962px;stroke-width:0.328089"
           x="-13.910442"
           y="74.77475">1.2</tspan></text>
      <text
         xml:space="preserve"
         style="font-style:normal;font-weight:normal;font-size:3.49962px;line-height:1.25;font-family:sans-serif;fill:#000000;fill-opacity:1;stroke:none;stroke-width:0.328089"
         x="-4.4737144"
         y="74.768867"
         id="text6801-0-93"><tspan
           sodipodi:role="line"
           id="tspan6799-6-1"
           style="font-weight:bold;font-size:3.49962px;stroke-width:0.328089"
           x="-4.4737144"
           y="74.768867">1.3</tspan></text>
      <text
         xml:space="preserve"
         style="font-style:normal;font-weight:normal;font-size:3.49962px;line-height:1.25;font-family:sans-serif;fill:#000000;fill-opacity:1;stroke:none;stroke-width:0.328089"
         x="2.7094829"
         y="74.664688"
         id="text6801-0-94"><tspan
           sodipodi:role="line"
           id="tspan6799-6-78"
           style="font-weight:bold;font-size:3.49962px;stroke-width:0.328089"
           x="2.7094829"
           y="74.664688">1.4</tspan></text>
      <text
         xml:space="preserve"
         style="font-style:normal;font-weight:normal;font-size:3.49962px;line-height:1.25;font-family:sans-serif;fill:#000000;fill-opacity:1;stroke:none;stroke-width:0.328089"
         x="13.834868"
         y="74.822845"
         id="text6801-0-4"><tspan
           sodipodi:role="line"
           id="tspan6799-6-5"
           style="font-weight:bold;font-size:3.49962px;stroke-width:0.328089"
           x="13.834868"
           y="74.822845">1.6</tspan></text>
      <text
         xml:space="preserve"
         style="font-style:normal;font-weight:normal;font-size:3.49962px;line-height:1.25;font-family:sans-serif;fill:#000000;fill-opacity:1;stroke:none;stroke-width:0.328089"
         x="22.559774"
         y="74.884377"
         id="text6801-0-0"><tspan
           sodipodi:role="line"
           id="tspan6799-6-3"
           style="font-weight:bold;font-size:3.49962px;stroke-width:0.328089"
           x="22.559774"
           y="74.884377">1.8</tspan></text>
      <text
         xml:space="preserve"
         style="font-style:normal;font-weight:normal;font-size:3.49962px;line-height:1.25;font-family:sans-serif;fill:#000000;fill-opacity:1;stroke:none;stroke-width:0.328089"
         x="28.957516"
         y="74.705673"
         id="text6801-0-6"><tspan
           sodipodi:role="line"
           id="tspan6799-6-10"
           style="font-weight:bold;font-size:3.49962px;stroke-width:0.328089"
           x="28.957516"
           y="74.705673">2.0</tspan></text>
      <text
         xml:space="preserve"
         style="font-style:normal;font-weight:normal;font-size:3.49962px;line-height:1.25;font-family:sans-serif;fill:#000000;fill-opacity:1;stroke:none;stroke-width:0.328089"
         x="-54.767368"
         y="16.437254"
         id="text6801-2"><tspan
           sodipodi:role="line"
           id="tspan6799-61"
           style="font-weight:bold;font-size:3.49962px;stroke-width:0.328089"
           x="-54.767368"
           y="16.437254">1.0</tspan></text>
      <text
         xml:space="preserve"
         style="font-style:normal;font-weight:normal;font-size:3.49962px;line-height:1.25;font-family:sans-serif;fill:#000000;fill-opacity:1;stroke:none;stroke-width:0.328089"
         x="-54.556454"
         y="27.446236"
         id="text6801-8"><tspan
           sodipodi:role="line"
           id="tspan6799-7"
           style="font-weight:bold;font-size:3.49962px;stroke-width:0.328089"
           x="-54.556454"
           y="27.446236">0.9</tspan></text>
      <text
         xml:space="preserve"
         style="font-style:normal;font-weight:normal;font-size:3.49962px;line-height:1.25;font-family:sans-serif;fill:#000000;fill-opacity:1;stroke:none;stroke-width:0.328089"
         x="-54.582157"
         y="38.345917"
         id="text6801-8-0"><tspan
           sodipodi:role="line"
           id="tspan6799-7-2"
           style="font-weight:bold;font-size:3.49962px;stroke-width:0.328089"
           x="-54.582157"
           y="38.345917">0.8</tspan></text>
      <text
         xml:space="preserve"
         style="font-style:normal;font-weight:normal;font-size:3.49962px;line-height:1.25;font-family:sans-serif;fill:#000000;fill-opacity:1;stroke:none;stroke-width:0.328089"
         x="-54.396347"
         y="49.152763"
         id="text6801-8-3"><tspan
           sodipodi:role="line"
           id="tspan6799-7-7"
           style="font-weight:bold;font-size:3.49962px;stroke-width:0.328089"
           x="-54.396347"
           y="49.152763">0.7</tspan></text>
      <text
         xml:space="preserve"
         style="font-style:normal;font-weight:normal;font-size:3.49962px;line-height:1.25;font-family:sans-serif;fill:#000000;fill-opacity:1;stroke:none;stroke-width:0.328089"
         x="-54.389236"
         y="60.113209"
         id="text6801-8-5"><tspan
           sodipodi:role="line"
           id="tspan6799-7-9"
           style="font-weight:bold;font-size:3.49962px;stroke-width:0.328089"
           x="-54.389236"
           y="60.113209">0.6</tspan></text>
      <text
         xml:space="preserve"
         style="font-style:normal;font-weight:normal;font-size:3.49962px;line-height:1.25;font-family:sans-serif;fill:#000000;fill-opacity:1;stroke:none;stroke-width:0.328089"
         x="-54.376686"
         y="71.269913"
         id="text6801-8-2"><tspan
           sodipodi:role="line"
           id="tspan6799-7-28"
           style="font-weight:bold;font-size:3.49962px;stroke-width:0.328089"
           x="-54.376686"
           y="71.269913">0.5</tspan></text>
      <g
         inkscape:label=""
         transform="matrix(0.63486864,0,0,0.63486864,-67.735433,29.853365)"
         id="g37042">
        <g
           id="g6497">
          <g
             style="fill:#000000;fill-opacity:1"
             id="g6564">
            <use
               xlink:href="#symbol698"
               x="93.848"
               y="78.040001"
               id="use7572"
               width="100%"
               height="100%" />
          </g>
          <path
             style="fill:none;stroke:#000000;stroke-width:0.398;stroke-linecap:butt;stroke-linejoin:miter;stroke-miterlimit:10;stroke-opacity:1"
             d="M 9.375e-5,-6.5625e-4 H 6.730563"
             transform="matrix(1,0,0,-1,93.121,79.472)"
             id="path4466" />
          <g
             style="fill:#000000;fill-opacity:1"
             id="g8932">
            <use
               xlink:href="#symbol9684"
               x="93.121002"
               y="85.398003"
               id="use4964"
               width="100%"
               height="100%" />
          </g>
          <g
             style="fill:#000000;fill-opacity:1"
             id="g1978"
             transform="rotate(-90,28.398326,98.171139)">
            <use
               xlink:href="#symbol7546"
               x="107.194"
               y="78.040001"
               id="use134"
               width="100%"
               height="100%" />
          </g>
          <g
             style="fill:#000000;fill-opacity:1"
             id="g9922"
             transform="rotate(-90,28.398326,98.171139)">
            <use
               xlink:href="#symbol9471"
               x="114.25079"
               y="78.040001"
               id="use3660"
               width="100%"
               height="100%" />
          </g>
          <path
             style="fill:none;stroke:#000000;stroke-width:0.398;stroke-linecap:butt;stroke-linejoin:miter;stroke-miterlimit:10;stroke-opacity:1"
             d="M 9.6998466,24.331183 V 2.6514933"
             id="path7051" />
          <g
             style="fill:#000000;fill-opacity:1"
             id="g7836"
             transform="rotate(-90,28.398326,98.171139)">
            <use
               xlink:href="#symbol7546"
               x="102.24"
               y="85.398003"
               id="use3423"
               width="100%"
               height="100%" />
          </g>
          <g
             style="fill:#000000;fill-opacity:1"
             id="g4195"
             transform="rotate(-90,28.398326,98.171139)">
            <use
               xlink:href="#symbol9471"
               x="109.29679"
               y="85.398003"
               id="use7178"
               width="100%"
               height="100%" />
          </g>
          <g
             style="fill:#000000;fill-opacity:1"
             id="g3805"
             transform="rotate(-90,28.398326,98.171139)">
            <use
               xlink:href="#symbol1411"
               x="114.009"
               y="86.394997"
               id="use3209"
               width="100%"
               height="100%" />
            <use
               xlink:href="#symbol7136"
               x="117.24386"
               y="86.394997"
               id="use6335"
               width="100%"
               height="100%" />
            <use
               xlink:href="#symbol7238"
               x="119.90188"
               y="86.394997"
               id="use7706"
               width="100%"
               height="100%" />
          </g>
          <g
             style="fill:#000000;fill-opacity:1"
             id="g1714"
             transform="rotate(-90,28.398326,98.171139)">
            <use
               xlink:href="#symbol3393"
               x="130.871"
               y="77.517998"
               id="use5176"
               width="100%"
               height="100%" />
          </g>
          <path
             style="fill:none;stroke:#000000;stroke-width:0.398;stroke-linecap:butt;stroke-linejoin:miter;stroke-miterlimit:10;stroke-opacity:1"
             d="M 9.6998466,0.26086826 V -13.5321"
             id="path1932" />
          <g
             style="fill:#000000;fill-opacity:1"
             id="g7575"
             transform="rotate(-90,28.398326,98.171139)">
            <use
               xlink:href="#symbol3393"
               x="126.308"
               y="85.398003"
               id="use5519"
               width="100%"
               height="100%" />
          </g>
          <g
             style="fill:#000000;fill-opacity:1"
             id="g4717"
             transform="rotate(-90,28.398326,98.171139)">
            <use
               xlink:href="#symbol1411"
               x="130.19299"
               y="86.394997"
               id="use3586"
               width="100%"
               height="100%" />
            <use
               xlink:href="#symbol7136"
               x="133.42786"
               y="86.394997"
               id="use8282"
               width="100%"
               height="100%" />
            <use
               xlink:href="#symbol7238"
               x="136.08588"
               y="86.394997"
               id="use1438"
               width="100%"
               height="100%" />
          </g>
        </g>
      </g>
    </g>
  </g>
</svg>
