<?xml version="1.0" encoding="UTF-8" standalone="no"?>
<!-- Created with Inkscape (http://www.inkscape.org/) -->

<svg
   width="600"
   height="400"
   viewBox="0 0 158.75 105.83334"
   version="1.1"
   id="svg8"
   inkscape:version="1.1.2 (0a00cf5339, 2022-02-04)"
   sodipodi:docname="f7.svg"
   xmlns:inkscape="http://www.inkscape.org/namespaces/inkscape"
   xmlns:sodipodi="http://sodipodi.sourceforge.net/DTD/sodipodi-0.dtd"
   xmlns:xlink="http://www.w3.org/1999/xlink"
   xmlns="http://www.w3.org/2000/svg"
   xmlns:svg="http://www.w3.org/2000/svg"
   xmlns:rdf="http://www.w3.org/1999/02/22-rdf-syntax-ns#"
   xmlns:cc="http://creativecommons.org/ns#"
   xmlns:dc="http://purl.org/dc/elements/1.1/">
  <defs
     id="defs2">
    <marker
       style="overflow:visible;"
       id="Arrow1Mend"
       refX="0.0"
       refY="0.0"
       orient="auto"
       inkscape:stockid="Arrow1Mend"
       inkscape:isstock="true">
      <path
         transform="scale(0.4) rotate(180) translate(10,0)"
         style="fill-rule:evenodd;fill:context-stroke;stroke:context-stroke;stroke-width:1.0pt;"
         d="M 0.0,0.0 L 5.0,-5.0 L -12.5,0.0 L 5.0,5.0 L 0.0,0.0 z "
         id="path2531" />
    </marker>
    <linearGradient
       id="linearGradient5797"
       inkscape:swatch="solid">
      <stop
         style="stop-color:#9b9393;stop-opacity:1;"
         offset="0"
         id="stop5795" />
    </linearGradient>
    <marker
       style="overflow:visible"
       id="Arrow1Mstart"
       refX="0.0"
       refY="0.0"
       orient="auto"
       inkscape:stockid="Arrow1Mstart"
       inkscape:isstock="true">
      <path
         transform="scale(0.4) translate(10,0)"
         style="fill-rule:evenodd;fill:context-stroke;stroke:context-stroke;stroke-width:1.0pt"
         d="M 0.0,0.0 L 5.0,-5.0 L -12.5,0.0 L 5.0,5.0 L 0.0,0.0 z "
         id="path2289" />
    </marker>
    <marker
       inkscape:stockid="Arrow1Mend"
       orient="auto"
       refY="0.0"
       refX="0.0"
       id="marker2656"
       style="overflow:visible;"
       inkscape:isstock="true">
      <path
         id="path2654"
         d="M 0.0,0.0 L 5.0,-5.0 L -12.5,0.0 L 5.0,5.0 L 0.0,0.0 z "
         style="fill-rule:evenodd;stroke:#ff1d1d;stroke-width:1pt;stroke-opacity:1;fill:#ff1d1d;fill-opacity:1"
         transform="scale(0.4) rotate(180) translate(10,0)" />
    </marker>
    <marker
       inkscape:isstock="true"
       style="overflow:visible;"
       id="marker1467"
       refX="0.0"
       refY="0.0"
       orient="auto"
       inkscape:stockid="Arrow1Mend">
      <path
         transform="scale(0.4) rotate(180) translate(10,0)"
         style="fill-rule:evenodd;stroke:#000000;stroke-width:1pt;stroke-opacity:0.99115026;fill:#8ba0d1;fill-opacity:0.2745098"
         d="M 0.0,0.0 L 5.0,-5.0 L -12.5,0.0 L 5.0,5.0 L 0.0,0.0 z "
         id="path1465" />
    </marker>
    <marker
       inkscape:isstock="true"
       style="overflow:visible;"
       id="marker1409"
       refX="0.0"
       refY="0.0"
       orient="auto"
       inkscape:stockid="Arrow1Mend">
      <path
         transform="scale(0.4) rotate(180) translate(10,0)"
         style="fill-rule:evenodd;stroke:#000000;stroke-width:1pt;stroke-opacity:0.99115026;fill:#8ba0d1;fill-opacity:0.2745098"
         d="M 0.0,0.0 L 5.0,-5.0 L -12.5,0.0 L 5.0,5.0 L 0.0,0.0 z "
         id="path1407" />
    </marker>
    <marker
       inkscape:isstock="true"
       style="overflow:visible;"
       id="marker1311"
       refX="0.0"
       refY="0.0"
       orient="auto"
       inkscape:stockid="Arrow1Mend">
      <path
         transform="scale(0.4) rotate(180) translate(10,0)"
         style="fill-rule:evenodd;stroke:#ff1d1d;stroke-width:1pt;stroke-opacity:1;fill:#ff1d1d;fill-opacity:1"
         d="M 0.0,0.0 L 5.0,-5.0 L -12.5,0.0 L 5.0,5.0 L 0.0,0.0 z "
         id="path1309" />
    </marker>
    <marker
       inkscape:isstock="true"
       style="overflow:visible;"
       id="marker1271"
       refX="0.0"
       refY="0.0"
       orient="auto"
       inkscape:stockid="Arrow1Mend">
      <path
         transform="scale(0.4) rotate(180) translate(10,0)"
         style="fill-rule:evenodd;stroke:#000000;stroke-width:1pt;stroke-opacity:0.99115026;fill:#8ba0d1;fill-opacity:0.2745098"
         d="M 0.0,0.0 L 5.0,-5.0 L -12.5,0.0 L 5.0,5.0 L 0.0,0.0 z "
         id="path1269" />
    </marker>
    <marker
       inkscape:isstock="true"
       style="overflow:visible;"
       id="marker1161"
       refX="0.0"
       refY="0.0"
       orient="auto"
       inkscape:stockid="Arrow1Mend">
      <path
         transform="scale(0.4) rotate(180) translate(10,0)"
         style="fill-rule:evenodd;stroke:#000000;stroke-width:1pt;stroke-opacity:0.99115026;fill:#8ba0d1;fill-opacity:0.2745098"
         d="M 0.0,0.0 L 5.0,-5.0 L -12.5,0.0 L 5.0,5.0 L 0.0,0.0 z "
         id="path1159" />
    </marker>
    <marker
       inkscape:isstock="true"
       style="overflow:visible;"
       id="marker1139"
       refX="0.0"
       refY="0.0"
       orient="auto"
       inkscape:stockid="Arrow1Mend">
      <path
         transform="scale(0.4) rotate(180) translate(10,0)"
         style="fill-rule:evenodd;stroke:#000000;stroke-width:1pt;stroke-opacity:0.99115026;fill:#8ba0d1;fill-opacity:0.2745098"
         d="M 0.0,0.0 L 5.0,-5.0 L -12.5,0.0 L 5.0,5.0 L 0.0,0.0 z "
         id="path1137" />
    </marker>
    <marker
       inkscape:isstock="true"
       style="overflow:visible"
       id="marker1311-3"
       refX="0"
       refY="0"
       orient="auto"
       inkscape:stockid="Arrow1Mend">
      <path
         inkscape:connector-curvature="0"
         transform="matrix(-0.4,0,0,-0.4,-4,0)"
         style="fill:#ff1d1d;fill-opacity:1;fill-rule:evenodd;stroke:#ff1d1d;stroke-width:1.00000003pt;stroke-opacity:1"
         d="M 0,0 5,-5 -12.5,0 5,5 Z"
         id="path1309-8" />
    </marker>
    <marker
       inkscape:isstock="true"
       style="overflow:visible"
       id="marker1311-31"
       refX="0"
       refY="0"
       orient="auto"
       inkscape:stockid="Arrow1Mend">
      <path
         inkscape:connector-curvature="0"
         transform="matrix(-0.4,0,0,-0.4,-4,0)"
         style="fill:#ff1d1d;fill-opacity:1;fill-rule:evenodd;stroke:#ff1d1d;stroke-width:1.00000003pt;stroke-opacity:1"
         d="M 0,0 5,-5 -12.5,0 5,5 Z"
         id="path1309-89" />
    </marker>
    <marker
       inkscape:isstock="true"
       style="overflow:visible"
       id="marker1311-4"
       refX="0"
       refY="0"
       orient="auto"
       inkscape:stockid="Arrow1Mend">
      <path
         inkscape:connector-curvature="0"
         transform="matrix(-0.4,0,0,-0.4,-4,0)"
         style="fill:#ff1d1d;fill-opacity:1;fill-rule:evenodd;stroke:#ff1d1d;stroke-width:1.00000003pt;stroke-opacity:1"
         d="M 0,0 5,-5 -12.5,0 5,5 Z"
         id="path1309-3" />
    </marker>
    <g
       id="g6053">
      <symbol
         overflow="visible"
         id="symbol6698">
        <path
           style="stroke:none;"
           d=""
           id="path6705" />
      </symbol>
      <symbol
         overflow="visible"
         id="symbol4861">
        <path
           style="stroke:none;"
           d="M 0.875 -0.59375 C 0.84375 -0.4375 0.78125 -0.203125 0.78125 -0.15625 C 0.78125 0.015625 0.921875 0.109375 1.078125 0.109375 C 1.203125 0.109375 1.375 0.03125 1.453125 -0.171875 C 1.46875 -0.203125 1.796875 -1.5625 1.84375 -1.75 C 1.921875 -2.078125 2.109375 -2.765625 2.15625 -3.046875 C 2.203125 -3.171875 2.484375 -3.640625 2.71875 -3.859375 C 2.796875 -3.921875 3.09375 -4.1875 3.515625 -4.1875 C 3.78125 -4.1875 3.921875 -4.0625 3.9375 -4.0625 C 3.640625 -4.015625 3.421875 -3.78125 3.421875 -3.515625 C 3.421875 -3.359375 3.53125 -3.171875 3.796875 -3.171875 C 4.0625 -3.171875 4.34375 -3.40625 4.34375 -3.765625 C 4.34375 -4.109375 4.03125 -4.40625 3.515625 -4.40625 C 2.875 -4.40625 2.4375 -3.921875 2.25 -3.640625 C 2.15625 -4.09375 1.796875 -4.40625 1.328125 -4.40625 C 0.875 -4.40625 0.6875 -4.015625 0.59375 -3.84375 C 0.421875 -3.5 0.296875 -2.90625 0.296875 -2.875 C 0.296875 -2.765625 0.390625 -2.765625 0.40625 -2.765625 C 0.515625 -2.765625 0.515625 -2.78125 0.578125 -3 C 0.75 -3.703125 0.953125 -4.1875 1.3125 -4.1875 C 1.46875 -4.1875 1.609375 -4.109375 1.609375 -3.734375 C 1.609375 -3.515625 1.578125 -3.40625 1.453125 -2.890625 Z M 0.875 -0.59375 "
           id="path59" />
      </symbol>
      <symbol
         overflow="visible"
         id="symbol7435">
        <path
           style="stroke:none;"
           d="M 2.046875 -3.984375 L 2.984375 -3.984375 C 3.1875 -3.984375 3.296875 -3.984375 3.296875 -4.1875 C 3.296875 -4.296875 3.1875 -4.296875 3.015625 -4.296875 L 2.140625 -4.296875 C 2.5 -5.71875 2.546875 -5.90625 2.546875 -5.96875 C 2.546875 -6.140625 2.421875 -6.234375 2.25 -6.234375 C 2.21875 -6.234375 1.9375 -6.234375 1.859375 -5.875 L 1.46875 -4.296875 L 0.53125 -4.296875 C 0.328125 -4.296875 0.234375 -4.296875 0.234375 -4.109375 C 0.234375 -3.984375 0.3125 -3.984375 0.515625 -3.984375 L 1.390625 -3.984375 C 0.671875 -1.15625 0.625 -0.984375 0.625 -0.8125 C 0.625 -0.265625 1 0.109375 1.546875 0.109375 C 2.5625 0.109375 3.125 -1.34375 3.125 -1.421875 C 3.125 -1.53125 3.046875 -1.53125 3.015625 -1.53125 C 2.921875 -1.53125 2.90625 -1.5 2.859375 -1.390625 C 2.4375 -0.34375 1.90625 -0.109375 1.5625 -0.109375 C 1.359375 -0.109375 1.25 -0.234375 1.25 -0.5625 C 1.25 -0.8125 1.28125 -0.875 1.3125 -1.046875 Z M 2.046875 -3.984375 "
           id="path8907" />
      </symbol>
      <symbol
         overflow="visible"
         id="symbol6864">
        <path
           style="stroke:none;"
           d=""
           id="path7448" />
      </symbol>
      <symbol
         overflow="visible"
         id="symbol5690">
        <path
           style="stroke:none;"
           d="M 3.59375 -2.21875 C 3.59375 -2.984375 3.5 -3.546875 3.1875 -4.03125 C 2.96875 -4.34375 2.53125 -4.625 1.984375 -4.625 C 0.359375 -4.625 0.359375 -2.71875 0.359375 -2.21875 C 0.359375 -1.71875 0.359375 0.140625 1.984375 0.140625 C 3.59375 0.140625 3.59375 -1.71875 3.59375 -2.21875 Z M 1.984375 -0.0625 C 1.65625 -0.0625 1.234375 -0.25 1.09375 -0.8125 C 1 -1.21875 1 -1.796875 1 -2.3125 C 1 -2.828125 1 -3.359375 1.09375 -3.734375 C 1.25 -4.28125 1.6875 -4.4375 1.984375 -4.4375 C 2.359375 -4.4375 2.71875 -4.203125 2.84375 -3.796875 C 2.953125 -3.421875 2.96875 -2.921875 2.96875 -2.3125 C 2.96875 -1.796875 2.96875 -1.28125 2.875 -0.84375 C 2.734375 -0.203125 2.265625 -0.0625 1.984375 -0.0625 Z M 1.984375 -0.0625 "
           id="path8980" />
      </symbol>
      <symbol
         overflow="visible"
         id="symbol8359">
        <path
           style="stroke:none;"
           d=""
           id="path1087" />
      </symbol>
      <symbol
         overflow="visible"
         id="symbol5005">
        <path
           style="stroke:none;"
           d="M 3.671875 -2.21875 C 3.71875 -2.40625 3.796875 -2.75 3.796875 -2.78125 C 3.796875 -2.921875 3.6875 -3 3.5625 -3 C 3.4375 -3 3.3125 -2.921875 3.265625 -2.796875 C 3.25 -2.75 3.171875 -2.453125 3.125 -2.28125 C 3.03125 -1.875 3.03125 -1.875 2.921875 -1.484375 C 2.84375 -1.09375 2.828125 -1.03125 2.8125 -0.84375 C 2.84375 -0.703125 2.78125 -0.5625 2.625 -0.359375 C 2.53125 -0.25 2.390625 -0.125 2.15625 -0.125 C 1.875 -0.125 1.53125 -0.21875 1.53125 -0.765625 C 1.53125 -1.125 1.71875 -1.640625 1.859375 -2 C 1.984375 -2.296875 2 -2.359375 2 -2.484375 C 2 -2.8125 1.71875 -3.078125 1.34375 -3.078125 C 0.640625 -3.078125 0.328125 -2.125 0.328125 -2 C 0.328125 -1.921875 0.421875 -1.921875 0.453125 -1.921875 C 0.546875 -1.921875 0.546875 -1.953125 0.578125 -2.03125 C 0.75 -2.609375 1.046875 -2.875 1.328125 -2.875 C 1.4375 -2.875 1.5 -2.796875 1.5 -2.640625 C 1.5 -2.46875 1.4375 -2.328125 1.40625 -2.234375 C 1 -1.21875 1 -1.078125 1 -0.859375 C 1 -0.03125 1.75 0.0625 2.125 0.0625 C 2.265625 0.0625 2.59375 0.0625 2.90625 -0.390625 C 3.078125 -0.078125 3.453125 0.0625 3.875 0.0625 C 4.5 0.0625 4.8125 -0.46875 4.953125 -0.75 C 5.25 -1.34375 5.4375 -2.203125 5.4375 -2.53125 C 5.4375 -3.046875 5.140625 -3.078125 5.09375 -3.078125 C 4.90625 -3.078125 4.703125 -2.890625 4.703125 -2.703125 C 4.703125 -2.59375 4.78125 -2.53125 4.828125 -2.5 C 5 -2.359375 5.09375 -2.15625 5.09375 -1.9375 C 5.09375 -1.84375 4.796875 -0.125 3.90625 -0.125 C 3.34375 -0.125 3.34375 -0.625 3.34375 -0.75 C 3.34375 -0.9375 3.375 -1.046875 3.46875 -1.4375 Z M 3.671875 -2.21875 "
           id="path2428" />
      </symbol>
      <symbol
         overflow="visible"
         id="symbol8821">
        <path
           style="stroke:none;"
           d="M 2.84375 -2.75 L 3.515625 -2.75 C 3.65625 -2.75 3.75 -2.75 3.75 -2.90625 C 3.75 -3 3.65625 -3 3.53125 -3 L 2.890625 -3 C 3.046875 -3.890625 3.09375 -4.203125 3.15625 -4.40625 C 3.1875 -4.5625 3.34375 -4.703125 3.515625 -4.703125 C 3.515625 -4.703125 3.703125 -4.703125 3.84375 -4.625 C 3.546875 -4.53125 3.53125 -4.28125 3.53125 -4.25 C 3.53125 -4.09375 3.65625 -3.984375 3.8125 -3.984375 C 4 -3.984375 4.203125 -4.140625 4.203125 -4.40625 C 4.203125 -4.734375 3.875 -4.90625 3.515625 -4.90625 C 3.203125 -4.90625 2.859375 -4.734375 2.671875 -4.390625 C 2.53125 -4.125 2.484375 -3.8125 2.328125 -3 L 1.78125 -3 C 1.640625 -3 1.546875 -3 1.546875 -2.84375 C 1.546875 -2.75 1.640625 -2.75 1.765625 -2.75 L 2.28125 -2.75 C 2.28125 -2.703125 1.84375 -0.203125 1.671875 0.546875 C 1.640625 0.703125 1.515625 1.21875 1.1875 1.21875 C 1.171875 1.21875 1.015625 1.21875 0.875 1.140625 C 1.15625 1.046875 1.1875 0.796875 1.1875 0.765625 C 1.1875 0.609375 1.0625 0.5 0.90625 0.5 C 0.71875 0.5 0.515625 0.65625 0.515625 0.921875 C 0.515625 1.234375 0.84375 1.421875 1.1875 1.421875 C 1.625 1.421875 1.9375 0.96875 2.015625 0.8125 C 2.265625 0.34375 2.4375 -0.515625 2.453125 -0.59375 Z M 2.84375 -2.75 "
           id="path4319" />
      </symbol>
      <symbol
         overflow="visible"
         id="symbol1334">
        <path
           style="stroke:none;"
           d=""
           id="path4402" />
      </symbol>
      <symbol
         overflow="visible"
         id="symbol7535">
        <path
           style="stroke:none;"
           d="M 1.984375 -3.171875 C 1.984375 -3.3125 1.96875 -3.3125 1.796875 -3.3125 C 1.453125 -3 0.890625 -3 0.796875 -3 L 0.71875 -3 L 0.71875 -2.78125 L 0.796875 -2.78125 C 0.90625 -2.78125 1.234375 -2.796875 1.53125 -2.921875 L 1.53125 -0.421875 C 1.53125 -0.28125 1.53125 -0.21875 1 -0.21875 L 0.75 -0.21875 L 0.75 0 C 1.015625 -0.015625 1.46875 -0.015625 1.75 -0.015625 C 2.046875 -0.015625 2.484375 -0.015625 2.765625 0 L 2.765625 -0.21875 L 2.515625 -0.21875 C 1.984375 -0.21875 1.984375 -0.28125 1.984375 -0.421875 Z M 1.984375 -3.171875 "
           id="path3416" />
      </symbol>
      <symbol
         overflow="visible"
         id="symbol1478">
        <path
           style="stroke:none;"
           d="M 2.9375 -0.96875 L 2.71875 -0.96875 C 2.71875 -0.875 2.65625 -0.5625 2.578125 -0.515625 C 2.546875 -0.484375 2.125 -0.484375 2.046875 -0.484375 L 1.078125 -0.484375 C 1.40625 -0.71875 1.765625 -1 2.0625 -1.203125 C 2.515625 -1.515625 2.9375 -1.796875 2.9375 -2.328125 C 2.9375 -2.96875 2.328125 -3.3125 1.625 -3.3125 C 0.953125 -3.3125 0.453125 -2.9375 0.453125 -2.4375 C 0.453125 -2.1875 0.671875 -2.140625 0.75 -2.140625 C 0.875 -2.140625 1.03125 -2.234375 1.03125 -2.4375 C 1.03125 -2.609375 0.90625 -2.71875 0.75 -2.71875 C 0.890625 -2.953125 1.1875 -3.09375 1.515625 -3.09375 C 2 -3.09375 2.40625 -2.8125 2.40625 -2.328125 C 2.40625 -1.90625 2.109375 -1.578125 1.734375 -1.265625 L 0.515625 -0.234375 C 0.46875 -0.1875 0.453125 -0.1875 0.453125 -0.15625 L 0.453125 0 L 2.765625 0 Z M 2.9375 -0.96875 "
           id="path1414" />
      </symbol>
      <symbol
         overflow="visible"
         id="symbol9884">
        <path
           style="stroke:none;"
           d=""
           id="path8600" />
      </symbol>
      <symbol
         overflow="visible"
         id="symbol86">
        <path
           style="stroke:none;"
           d="M 2.5625 -1.921875 C 2.484375 -1.90625 2.34375 -1.796875 2.34375 -1.625 C 2.34375 -1.5 2.4375 -1.421875 2.5625 -1.421875 C 2.671875 -1.421875 2.859375 -1.515625 2.859375 -1.765625 C 2.859375 -2.140625 2.375 -2.203125 2.109375 -2.203125 C 1.265625 -2.203125 0.53125 -1.515625 0.53125 -0.859375 C 0.53125 -0.421875 0.859375 0.0625 1.609375 0.0625 C 1.703125 0.0625 2.09375 0.0625 2.4375 -0.078125 C 2.765625 -0.203125 2.96875 -0.4375 2.96875 -0.484375 C 2.96875 -0.53125 2.90625 -0.609375 2.859375 -0.609375 C 2.84375 -0.609375 2.828125 -0.59375 2.75 -0.515625 C 2.53125 -0.265625 2.109375 -0.109375 1.609375 -0.109375 C 1.1875 -0.109375 0.984375 -0.34375 0.984375 -0.6875 C 0.984375 -1.203125 1.328125 -2.03125 2.109375 -2.03125 C 2.15625 -2.03125 2.40625 -2.03125 2.5625 -1.921875 Z M 2.5625 -1.921875 "
           id="path5636" />
      </symbol>
      <symbol
         overflow="visible"
         id="symbol4676">
        <path
           style="stroke:none;"
           d=""
           id="path2568" />
      </symbol>
      <symbol
         overflow="visible"
         id="symbol7561">
        <path
           style="stroke:none;"
           d="M 2.9375 -6.375 C 2.9375 -6.625 2.9375 -6.640625 2.703125 -6.640625 C 2.078125 -6 1.203125 -6 0.890625 -6 L 0.890625 -5.6875 C 1.09375 -5.6875 1.671875 -5.6875 2.1875 -5.953125 L 2.1875 -0.78125 C 2.1875 -0.421875 2.15625 -0.3125 1.265625 -0.3125 L 0.953125 -0.3125 L 0.953125 0 C 1.296875 -0.03125 2.15625 -0.03125 2.5625 -0.03125 C 2.953125 -0.03125 3.828125 -0.03125 4.171875 0 L 4.171875 -0.3125 L 3.859375 -0.3125 C 2.953125 -0.3125 2.9375 -0.421875 2.9375 -0.78125 Z M 2.9375 -6.375 "
           id="path6979" />
      </symbol>
      <symbol
         overflow="visible"
         id="symbol713">
        <path
           style="stroke:none;"
           d="M 1.265625 -0.765625 L 2.328125 -1.796875 C 3.875 -3.171875 4.46875 -3.703125 4.46875 -4.703125 C 4.46875 -5.84375 3.578125 -6.640625 2.359375 -6.640625 C 1.234375 -6.640625 0.5 -5.71875 0.5 -4.828125 C 0.5 -4.28125 1 -4.28125 1.03125 -4.28125 C 1.203125 -4.28125 1.546875 -4.390625 1.546875 -4.8125 C 1.546875 -5.0625 1.359375 -5.328125 1.015625 -5.328125 C 0.9375 -5.328125 0.921875 -5.328125 0.890625 -5.3125 C 1.109375 -5.96875 1.65625 -6.328125 2.234375 -6.328125 C 3.140625 -6.328125 3.5625 -5.515625 3.5625 -4.703125 C 3.5625 -3.90625 3.078125 -3.125 2.515625 -2.5 L 0.609375 -0.375 C 0.5 -0.265625 0.5 -0.234375 0.5 0 L 4.203125 0 L 4.46875 -1.734375 L 4.234375 -1.734375 C 4.171875 -1.4375 4.109375 -1 4 -0.84375 C 3.9375 -0.765625 3.28125 -0.765625 3.0625 -0.765625 Z M 1.265625 -0.765625 "
           id="path4936" />
      </symbol>
    </g>
    <g
       id="g1632">
      <symbol
         overflow="visible"
         id="symbol5860">
        <path
           style="stroke:none;"
           d=""
           id="path9240" />
      </symbol>
      <symbol
         overflow="visible"
         id="symbol698">
        <path
           style="stroke:none;"
           d="M 4.953125 -4.8125 C 4.953125 -4.84375 4.921875 -4.90625 4.859375 -4.90625 C 4.8125 -4.90625 4.8125 -4.890625 4.71875 -4.796875 L 4.375 -4.40625 C 4.109375 -4.78125 3.671875 -4.90625 3.25 -4.90625 C 2.265625 -4.90625 1.390625 -4.109375 1.390625 -3.296875 C 1.390625 -3.203125 1.421875 -2.921875 1.625 -2.65625 C 1.859375 -2.390625 2.125 -2.328125 2.59375 -2.203125 C 2.734375 -2.171875 3.078125 -2.09375 3.1875 -2.0625 C 3.40625 -2.015625 3.828125 -1.859375 3.828125 -1.34375 C 3.828125 -0.78125 3.234375 -0.109375 2.453125 -0.109375 C 1.828125 -0.109375 1.09375 -0.328125 1.09375 -1.09375 C 1.09375 -1.171875 1.109375 -1.328125 1.140625 -1.453125 C 1.140625 -1.484375 1.140625 -1.484375 1.140625 -1.484375 C 1.140625 -1.578125 1.0625 -1.578125 1.03125 -1.578125 C 0.9375 -1.578125 0.921875 -1.5625 0.90625 -1.4375 L 0.546875 -0.046875 C 0.53125 -0.015625 0.515625 0.015625 0.515625 0.0625 C 0.515625 0.09375 0.546875 0.140625 0.625 0.140625 C 0.65625 0.140625 0.671875 0.125 0.765625 0.046875 C 0.84375 -0.046875 1.015625 -0.265625 1.09375 -0.34375 C 1.46875 0.0625 2 0.140625 2.421875 0.140625 C 3.484375 0.140625 4.328125 -0.765625 4.328125 -1.59375 C 4.328125 -1.890625 4.203125 -2.171875 4.046875 -2.328125 C 3.8125 -2.578125 3.703125 -2.609375 2.796875 -2.828125 C 2.65625 -2.859375 2.421875 -2.90625 2.359375 -2.9375 C 2.1875 -3 1.890625 -3.171875 1.890625 -3.5625 C 1.890625 -4.125 2.515625 -4.671875 3.234375 -4.671875 C 4 -4.671875 4.359375 -4.25 4.359375 -3.59375 C 4.359375 -3.5 4.328125 -3.34375 4.328125 -3.28125 C 4.328125 -3.171875 4.40625 -3.171875 4.453125 -3.171875 C 4.546875 -3.171875 4.5625 -3.21875 4.578125 -3.328125 Z M 4.953125 -4.8125 "
           id="path6854" />
      </symbol>
      <symbol
         overflow="visible"
         id="symbol9684">
        <path
           style="stroke:none;"
           d="M 1.3125 -0.546875 C 1.265625 -0.3125 1.25 -0.25 0.703125 -0.25 C 0.578125 -0.25 0.5 -0.25 0.5 -0.09375 C 0.5 0 0.578125 0 0.703125 0 L 3.1875 0 C 4.734375 0 6.21875 -1.421875 6.21875 -2.9375 C 6.21875 -3.953125 5.515625 -4.765625 4.390625 -4.765625 L 1.84375 -4.765625 C 1.703125 -4.765625 1.625 -4.765625 1.625 -4.609375 C 1.625 -4.515625 1.703125 -4.515625 1.859375 -4.515625 C 1.96875 -4.515625 2 -4.515625 2.125 -4.5 C 2.265625 -4.484375 2.265625 -4.46875 2.265625 -4.390625 C 2.265625 -4.390625 2.265625 -4.34375 2.25 -4.25 Z M 2.875 -4.265625 C 2.9375 -4.484375 2.9375 -4.515625 3.234375 -4.515625 L 4.125 -4.515625 C 4.90625 -4.515625 5.5625 -4.125 5.5625 -3.171875 C 5.5625 -3.015625 5.484375 -1.8125 4.796875 -1.015625 C 4.515625 -0.703125 3.921875 -0.25 3.0625 -0.25 L 2.125 -0.25 C 1.90625 -0.25 1.890625 -0.265625 1.890625 -0.328125 C 1.890625 -0.328125 1.890625 -0.359375 1.921875 -0.46875 Z M 2.875 -4.265625 "
           id="path9439" />
      </symbol>
      <symbol
         overflow="visible"
         id="symbol7546">
        <path
           style="stroke:none;"
           d="M 5.8125 -4 C 5.875 -4.265625 6 -4.5 6.546875 -4.515625 C 6.578125 -4.515625 6.6875 -4.515625 6.6875 -4.65625 C 6.6875 -4.703125 6.65625 -4.765625 6.578125 -4.765625 C 6.359375 -4.765625 6.09375 -4.734375 5.859375 -4.734375 C 5.6875 -4.734375 5.296875 -4.765625 5.125 -4.765625 C 5.09375 -4.765625 4.984375 -4.765625 4.984375 -4.609375 C 4.984375 -4.515625 5.078125 -4.515625 5.140625 -4.515625 C 5.46875 -4.5 5.578125 -4.390625 5.578125 -4.21875 C 5.578125 -4.171875 5.578125 -4.125 5.546875 -4.0625 L 4.796875 -1.015625 L 3.03125 -4.640625 C 2.96875 -4.765625 2.953125 -4.765625 2.78125 -4.765625 L 1.828125 -4.765625 C 1.703125 -4.765625 1.609375 -4.765625 1.609375 -4.609375 C 1.609375 -4.515625 1.6875 -4.515625 1.84375 -4.515625 C 1.984375 -4.515625 2.140625 -4.5 2.28125 -4.46875 L 1.359375 -0.75 C 1.296875 -0.484375 1.171875 -0.265625 0.625 -0.25 C 0.578125 -0.25 0.484375 -0.25 0.484375 -0.109375 C 0.484375 -0.03125 0.53125 0 0.578125 0 C 0.8125 0 1.078125 -0.03125 1.3125 -0.03125 C 1.484375 -0.03125 1.875 0 2.046875 0 C 2.125 0 2.1875 -0.03125 2.1875 -0.140625 C 2.1875 -0.25 2.109375 -0.25 2.03125 -0.25 C 1.59375 -0.265625 1.59375 -0.453125 1.59375 -0.546875 C 1.59375 -0.578125 1.59375 -0.609375 1.609375 -0.71875 L 2.515625 -4.28125 L 4.546875 -0.125 C 4.59375 0 4.625 0 4.703125 0 C 4.8125 0 4.8125 -0.015625 4.84375 -0.140625 Z M 5.8125 -4 "
           id="path56" />
      </symbol>
      <symbol
         overflow="visible"
         id="symbol9471">
        <path
           style="stroke:none;"
           d="M 2.953125 -1.125 C 2.90625 -0.984375 2.84375 -0.71875 2.84375 -0.71875 C 2.703125 -0.5 2.421875 -0.125 2 -0.125 C 1.515625 -0.125 1.515625 -0.578125 1.515625 -0.703125 C 1.515625 -1.109375 1.703125 -1.609375 1.90625 -2.125 C 1.953125 -2.265625 2 -2.359375 2 -2.46875 C 2 -2.84375 1.6875 -3.078125 1.34375 -3.078125 C 0.640625 -3.078125 0.328125 -2.125 0.328125 -2 C 0.328125 -1.921875 0.421875 -1.921875 0.453125 -1.921875 C 0.546875 -1.921875 0.546875 -1.953125 0.578125 -2.03125 C 0.734375 -2.59375 1.046875 -2.875 1.3125 -2.875 C 1.4375 -2.875 1.484375 -2.796875 1.484375 -2.640625 C 1.484375 -2.46875 1.4375 -2.328125 1.359375 -2.171875 C 0.984375 -1.203125 0.984375 -1 0.984375 -0.8125 C 0.984375 -0.703125 0.984375 -0.375 1.25 -0.15625 C 1.453125 0.015625 1.71875 0.0625 1.96875 0.0625 C 2.40625 0.0625 2.640625 -0.171875 2.875 -0.390625 C 3.03125 0.0625 3.484375 0.0625 3.578125 0.0625 C 3.8125 0.0625 4 -0.0625 4.125 -0.296875 C 4.28125 -0.578125 4.375 -0.96875 4.375 -1 C 4.375 -1.09375 4.28125 -1.09375 4.265625 -1.09375 C 4.15625 -1.09375 4.15625 -1.0625 4.109375 -0.875 C 4.015625 -0.546875 3.890625 -0.125 3.59375 -0.125 C 3.421875 -0.125 3.359375 -0.28125 3.359375 -0.46875 C 3.359375 -0.578125 3.421875 -0.84375 3.46875 -1.015625 C 3.515625 -1.203125 3.59375 -1.484375 3.625 -1.640625 L 3.78125 -2.265625 C 3.828125 -2.4375 3.90625 -2.75 3.90625 -2.78125 C 3.90625 -2.921875 3.796875 -3 3.671875 -3 C 3.421875 -3 3.359375 -2.796875 3.3125 -2.578125 Z M 2.953125 -1.125 "
           id="path316" />
      </symbol>
      <symbol
         overflow="visible"
         id="symbol3393">
        <path
           style="stroke:none;"
           d="M 2.84375 -2.75 L 3.515625 -2.75 C 3.65625 -2.75 3.75 -2.75 3.75 -2.90625 C 3.75 -3 3.65625 -3 3.53125 -3 L 2.890625 -3 C 3.046875 -3.890625 3.09375 -4.203125 3.15625 -4.40625 C 3.1875 -4.5625 3.34375 -4.703125 3.515625 -4.703125 C 3.515625 -4.703125 3.703125 -4.703125 3.84375 -4.625 C 3.546875 -4.53125 3.53125 -4.28125 3.53125 -4.25 C 3.53125 -4.09375 3.65625 -3.984375 3.8125 -3.984375 C 4 -3.984375 4.203125 -4.140625 4.203125 -4.40625 C 4.203125 -4.734375 3.875 -4.90625 3.515625 -4.90625 C 3.203125 -4.90625 2.859375 -4.734375 2.671875 -4.390625 C 2.53125 -4.125 2.484375 -3.8125 2.328125 -3 L 1.78125 -3 C 1.640625 -3 1.546875 -3 1.546875 -2.84375 C 1.546875 -2.75 1.640625 -2.75 1.765625 -2.75 L 2.28125 -2.75 C 2.28125 -2.703125 1.84375 -0.203125 1.671875 0.546875 C 1.640625 0.703125 1.515625 1.21875 1.1875 1.21875 C 1.171875 1.21875 1.015625 1.21875 0.875 1.140625 C 1.15625 1.046875 1.1875 0.796875 1.1875 0.765625 C 1.1875 0.609375 1.0625 0.5 0.90625 0.5 C 0.71875 0.5 0.515625 0.65625 0.515625 0.921875 C 0.515625 1.234375 0.84375 1.421875 1.1875 1.421875 C 1.625 1.421875 1.9375 0.96875 2.015625 0.8125 C 2.265625 0.34375 2.4375 -0.515625 2.453125 -0.59375 Z M 2.84375 -2.75 "
           id="path8648" />
      </symbol>
      <symbol
         overflow="visible"
         id="symbol8142">
        <path
           style="stroke:none;"
           d=""
           id="path6660" />
      </symbol>
      <symbol
         overflow="visible"
         id="symbol1411">
        <path
           style="stroke:none;"
           d="M 2.5625 -1.921875 C 2.484375 -1.90625 2.34375 -1.796875 2.34375 -1.625 C 2.34375 -1.5 2.4375 -1.421875 2.5625 -1.421875 C 2.671875 -1.421875 2.859375 -1.515625 2.859375 -1.765625 C 2.859375 -2.140625 2.375 -2.203125 2.109375 -2.203125 C 1.265625 -2.203125 0.53125 -1.515625 0.53125 -0.859375 C 0.53125 -0.421875 0.859375 0.0625 1.609375 0.0625 C 1.703125 0.0625 2.09375 0.0625 2.4375 -0.078125 C 2.765625 -0.203125 2.96875 -0.4375 2.96875 -0.484375 C 2.96875 -0.53125 2.90625 -0.609375 2.859375 -0.609375 C 2.84375 -0.609375 2.828125 -0.59375 2.75 -0.515625 C 2.53125 -0.265625 2.109375 -0.109375 1.609375 -0.109375 C 1.1875 -0.109375 0.984375 -0.34375 0.984375 -0.6875 C 0.984375 -1.203125 1.328125 -2.03125 2.109375 -2.03125 C 2.15625 -2.03125 2.40625 -2.03125 2.5625 -1.921875 Z M 2.5625 -1.921875 "
           id="path2982" />
      </symbol>
      <symbol
         overflow="visible"
         id="symbol7136">
        <path
           style="stroke:none;"
           d="M 1.96875 -3.109375 C 1.96875 -3.234375 1.890625 -3.328125 1.75 -3.328125 C 1.609375 -3.328125 1.453125 -3.1875 1.453125 -3.03125 C 1.453125 -2.890625 1.5625 -2.8125 1.671875 -2.8125 C 1.828125 -2.8125 1.96875 -2.953125 1.96875 -3.109375 Z M 2.203125 -0.71875 C 2.203125 -0.78125 2.125 -0.78125 2.109375 -0.78125 C 2.015625 -0.78125 2.015625 -0.765625 1.984375 -0.671875 C 1.90625 -0.40625 1.671875 -0.109375 1.421875 -0.109375 C 1.3125 -0.109375 1.28125 -0.1875 1.28125 -0.296875 C 1.28125 -0.40625 1.296875 -0.46875 1.34375 -0.5625 C 1.375 -0.65625 1.421875 -0.75 1.453125 -0.828125 C 1.46875 -0.875 1.65625 -1.328125 1.734375 -1.515625 C 1.765625 -1.609375 1.796875 -1.6875 1.796875 -1.765625 C 1.796875 -2 1.5625 -2.203125 1.25 -2.203125 C 0.734375 -2.203125 0.453125 -1.5625 0.453125 -1.4375 C 0.453125 -1.359375 0.53125 -1.359375 0.5625 -1.359375 C 0.640625 -1.359375 0.640625 -1.390625 0.671875 -1.453125 C 0.78125 -1.8125 1.015625 -2.03125 1.234375 -2.03125 C 1.328125 -2.03125 1.390625 -1.984375 1.390625 -1.84375 C 1.390625 -1.828125 1.390625 -1.765625 1.359375 -1.671875 C 1.328125 -1.578125 1.09375 -1.046875 1.03125 -0.875 C 0.984375 -0.78125 0.984375 -0.78125 0.921875 -0.609375 C 0.890625 -0.53125 0.859375 -0.46875 0.859375 -0.390625 C 0.859375 -0.125 1.109375 0.0625 1.40625 0.0625 C 1.921875 0.0625 2.203125 -0.59375 2.203125 -0.71875 Z M 2.203125 -0.71875 "
           id="path4682" />
      </symbol>
      <symbol
         overflow="visible"
         id="symbol7238">
        <path
           style="stroke:none;"
           d="M 1.484375 -0.8125 C 1.5 -0.890625 1.546875 -1.078125 1.5625 -1.15625 C 1.578125 -1.234375 1.609375 -1.3125 1.625 -1.375 C 1.640625 -1.453125 1.796875 -1.71875 1.96875 -1.859375 C 2.140625 -2 2.296875 -2.03125 2.46875 -2.03125 C 2.53125 -2.03125 2.765625 -2.03125 2.9375 -1.953125 C 2.71875 -1.875 2.71875 -1.671875 2.71875 -1.65625 C 2.71875 -1.578125 2.78125 -1.453125 2.9375 -1.453125 C 3.078125 -1.453125 3.25 -1.578125 3.25 -1.796875 C 3.25 -2.15625 2.71875 -2.203125 2.484375 -2.203125 C 2.359375 -2.203125 2.03125 -2.203125 1.6875 -1.8125 C 1.625 -2.078125 1.328125 -2.203125 1.09375 -2.203125 C 0.921875 -2.203125 0.78125 -2.125 0.640625 -1.921875 C 0.515625 -1.71875 0.453125 -1.453125 0.453125 -1.4375 C 0.453125 -1.359375 0.53125 -1.359375 0.5625 -1.359375 C 0.640625 -1.359375 0.640625 -1.375 0.6875 -1.5 C 0.765625 -1.796875 0.875 -2.03125 1.0625 -2.03125 C 1.234375 -2.03125 1.265625 -1.875 1.265625 -1.765625 C 1.265625 -1.703125 1.21875 -1.515625 1.1875 -1.375 C 1.15625 -1.25 1.109375 -1.046875 1.078125 -0.9375 L 0.96875 -0.484375 C 0.9375 -0.359375 0.875 -0.140625 0.875 -0.125 C 0.875 -0.015625 0.96875 0.0625 1.0625 0.0625 C 1.140625 0.0625 1.234375 0.015625 1.28125 -0.078125 C 1.3125 -0.109375 1.34375 -0.28125 1.375 -0.375 Z M 1.484375 -0.8125 "
           id="path6381" />
      </symbol>
    </g>
    <marker
       inkscape:isstock="true"
       style="overflow:visible"
       id="marker1409-5"
       refX="0"
       refY="0"
       orient="auto"
       inkscape:stockid="Arrow1Mend">
      <path
         transform="matrix(-0.4,0,0,-0.4,-4,0)"
         style="fill:#8ba0d1;fill-opacity:0.27451;fill-rule:evenodd;stroke:#000000;stroke-width:1pt;stroke-opacity:0.99115"
         d="M 0,0 5,-5 -12.5,0 5,5 Z"
         id="path1407-3" />
    </marker>
    <g
       id="g2292">
      <symbol
         overflow="visible"
         id="symbol7980">
        <path
           style="stroke:none;"
           d=""
           id="path4668" />
      </symbol>
      <symbol
         overflow="visible"
         id="symbol773">
        <path
           style="stroke:none;"
           d="M 3.71875 -3.765625 C 3.53125 -4.140625 3.25 -4.40625 2.796875 -4.40625 C 1.640625 -4.40625 0.40625 -2.9375 0.40625 -1.484375 C 0.40625 -0.546875 0.953125 0.109375 1.71875 0.109375 C 1.921875 0.109375 2.421875 0.0625 3.015625 -0.640625 C 3.09375 -0.21875 3.453125 0.109375 3.921875 0.109375 C 4.28125 0.109375 4.5 -0.125 4.671875 -0.4375 C 4.828125 -0.796875 4.96875 -1.40625 4.96875 -1.421875 C 4.96875 -1.53125 4.875 -1.53125 4.84375 -1.53125 C 4.75 -1.53125 4.734375 -1.484375 4.703125 -1.34375 C 4.53125 -0.703125 4.359375 -0.109375 3.953125 -0.109375 C 3.671875 -0.109375 3.65625 -0.375 3.65625 -0.5625 C 3.65625 -0.78125 3.671875 -0.875 3.78125 -1.3125 C 3.890625 -1.71875 3.90625 -1.828125 4 -2.203125 L 4.359375 -3.59375 C 4.421875 -3.875 4.421875 -3.890625 4.421875 -3.9375 C 4.421875 -4.109375 4.3125 -4.203125 4.140625 -4.203125 C 3.890625 -4.203125 3.75 -3.984375 3.71875 -3.765625 Z M 3.078125 -1.1875 C 3.015625 -1 3.015625 -0.984375 2.875 -0.8125 C 2.4375 -0.265625 2.03125 -0.109375 1.75 -0.109375 C 1.25 -0.109375 1.109375 -0.65625 1.109375 -1.046875 C 1.109375 -1.546875 1.421875 -2.765625 1.65625 -3.234375 C 1.96875 -3.8125 2.40625 -4.1875 2.8125 -4.1875 C 3.453125 -4.1875 3.59375 -3.375 3.59375 -3.3125 C 3.59375 -3.25 3.578125 -3.1875 3.5625 -3.140625 Z M 3.078125 -1.1875 "
           id="path9303" />
      </symbol>
      <symbol
         overflow="visible"
         id="symbol2066">
        <path
           style="stroke:none;"
           d="M 2.375 -6.8125 C 2.375 -6.8125 2.375 -6.921875 2.25 -6.921875 C 2.03125 -6.921875 1.296875 -6.84375 1.03125 -6.8125 C 0.953125 -6.8125 0.84375 -6.796875 0.84375 -6.625 C 0.84375 -6.5 0.9375 -6.5 1.09375 -6.5 C 1.5625 -6.5 1.578125 -6.4375 1.578125 -6.328125 C 1.578125 -6.265625 1.5 -5.921875 1.453125 -5.71875 L 0.625 -2.46875 C 0.515625 -1.96875 0.46875 -1.796875 0.46875 -1.453125 C 0.46875 -0.515625 1 0.109375 1.734375 0.109375 C 2.90625 0.109375 4.140625 -1.375 4.140625 -2.8125 C 4.140625 -3.71875 3.609375 -4.40625 2.8125 -4.40625 C 2.359375 -4.40625 1.9375 -4.109375 1.640625 -3.8125 Z M 1.453125 -3.046875 C 1.5 -3.265625 1.5 -3.28125 1.59375 -3.390625 C 2.078125 -4.03125 2.53125 -4.1875 2.796875 -4.1875 C 3.15625 -4.1875 3.421875 -3.890625 3.421875 -3.25 C 3.421875 -2.65625 3.09375 -1.515625 2.90625 -1.140625 C 2.578125 -0.46875 2.125 -0.109375 1.734375 -0.109375 C 1.390625 -0.109375 1.0625 -0.375 1.0625 -1.109375 C 1.0625 -1.3125 1.0625 -1.5 1.21875 -2.125 Z M 1.453125 -3.046875 "
           id="path15" />
      </symbol>
    </g>
    <marker
       style="overflow:visible"
       id="Arrow1Mstart-3"
       refX="0"
       refY="0"
       orient="auto"
       inkscape:stockid="Arrow1Mstart"
       inkscape:isstock="true">
      <path
         transform="matrix(0.4,0,0,0.4,4,0)"
         style="fill:context-stroke;fill-rule:evenodd;stroke:context-stroke;stroke-width:1pt"
         d="M 0,0 5,-5 -12.5,0 5,5 Z"
         id="path2289-5" />
    </marker>
    <marker
       style="overflow:visible"
       id="Arrow1Mend-6"
       refX="0"
       refY="0"
       orient="auto"
       inkscape:stockid="Arrow1Mend"
       inkscape:isstock="true">
      <path
         transform="matrix(-0.4,0,0,-0.4,-4,0)"
         style="fill:context-stroke;fill-rule:evenodd;stroke:context-stroke;stroke-width:1pt"
         d="M 0,0 5,-5 -12.5,0 5,5 Z"
         id="path2531-2" />
    </marker>
    <marker
       style="overflow:visible"
       id="Arrow1Mend-60"
       refX="0"
       refY="0"
       orient="auto"
       inkscape:stockid="Arrow1Mend"
       inkscape:isstock="true">
      <path
         transform="matrix(-0.4,0,0,-0.4,-4,0)"
         style="fill:context-stroke;fill-rule:evenodd;stroke:context-stroke;stroke-width:1pt"
         d="M 0,0 5,-5 -12.5,0 5,5 Z"
         id="path2531-6" />
    </marker>
    <marker
       style="overflow:visible"
       id="Arrow1Mend-60-6"
       refX="0"
       refY="0"
       orient="auto"
       inkscape:stockid="Arrow1Mend"
       inkscape:isstock="true">
      <path
         transform="matrix(-0.4,0,0,-0.4,-4,0)"
         style="fill:context-stroke;fill-rule:evenodd;stroke:context-stroke;stroke-width:1pt"
         d="M 0,0 5,-5 -12.5,0 5,5 Z"
         id="path2531-6-1" />
    </marker>
    <marker
       style="overflow:visible"
       id="Arrow1Mend-60-6-7"
       refX="0"
       refY="0"
       orient="auto"
       inkscape:stockid="Arrow1Mend"
       inkscape:isstock="true">
      <path
         transform="matrix(-0.4,0,0,-0.4,-4,0)"
         style="fill:context-stroke;fill-rule:evenodd;stroke:context-stroke;stroke-width:1pt"
         d="M 0,0 5,-5 -12.5,0 5,5 Z"
         id="path2531-6-1-9" />
    </marker>
    <marker
       style="overflow:visible"
       id="Arrow1Mend-60-6-7-0"
       refX="0"
       refY="0"
       orient="auto"
       inkscape:stockid="Arrow1Mend"
       inkscape:isstock="true">
      <path
         transform="matrix(-0.4,0,0,-0.4,-4,0)"
         style="fill:context-stroke;fill-rule:evenodd;stroke:context-stroke;stroke-width:1pt"
         d="M 0,0 5,-5 -12.5,0 5,5 Z"
         id="path2531-6-1-9-2" />
    </marker>
    <marker
       style="overflow:visible"
       id="Arrow1Mend-60-6-7-0-7"
       refX="0"
       refY="0"
       orient="auto"
       inkscape:stockid="Arrow1Mend"
       inkscape:isstock="true">
      <path
         transform="matrix(-0.4,0,0,-0.4,-4,0)"
         style="fill:context-stroke;fill-rule:evenodd;stroke:context-stroke;stroke-width:1pt"
         d="M 0,0 5,-5 -12.5,0 5,5 Z"
         id="path2531-6-1-9-2-5" />
    </marker>
    <marker
       style="overflow:visible"
       id="Arrow1Mend-60-6-7-0-7-2"
       refX="0"
       refY="0"
       orient="auto"
       inkscape:stockid="Arrow1Mend"
       inkscape:isstock="true">
      <path
         transform="matrix(-0.4,0,0,-0.4,-4,0)"
         style="fill:context-stroke;fill-rule:evenodd;stroke:context-stroke;stroke-width:1pt"
         d="M 0,0 5,-5 -12.5,0 5,5 Z"
         id="path2531-6-1-9-2-5-2" />
    </marker>
    <marker
       style="overflow:visible"
       id="Arrow1Mend-60-6-7-0-7-2-9"
       refX="0"
       refY="0"
       orient="auto"
       inkscape:stockid="Arrow1Mend"
       inkscape:isstock="true">
      <path
         transform="matrix(-0.4,0,0,-0.4,-4,0)"
         style="fill:context-stroke;fill-rule:evenodd;stroke:context-stroke;stroke-width:1pt"
         d="M 0,0 5,-5 -12.5,0 5,5 Z"
         id="path2531-6-1-9-2-5-2-7" />
    </marker>
    <marker
       style="overflow:visible"
       id="Arrow1Mend-60-6-7-0-7-2-6"
       refX="0"
       refY="0"
       orient="auto"
       inkscape:stockid="Arrow1Mend"
       inkscape:isstock="true">
      <path
         transform="matrix(-0.4,0,0,-0.4,-4,0)"
         style="fill:context-stroke;fill-rule:evenodd;stroke:context-stroke;stroke-width:1pt"
         d="M 0,0 5,-5 -12.5,0 5,5 Z"
         id="path2531-6-1-9-2-5-2-1" />
    </marker>
    <marker
       style="overflow:visible"
       id="Arrow1Mend-60-6-7-0-7-2-6-9"
       refX="0"
       refY="0"
       orient="auto"
       inkscape:stockid="Arrow1Mend"
       inkscape:isstock="true">
      <path
         transform="matrix(-0.4,0,0,-0.4,-4,0)"
         style="fill:context-stroke;fill-rule:evenodd;stroke:context-stroke;stroke-width:1pt"
         d="M 0,0 5,-5 -12.5,0 5,5 Z"
         id="path2531-6-1-9-2-5-2-1-3" />
    </marker>
    <marker
       style="overflow:visible"
       id="Arrow1Mend-60-6-7-0-7-2-6-9-9"
       refX="0"
       refY="0"
       orient="auto"
       inkscape:stockid="Arrow1Mend"
       inkscape:isstock="true">
      <path
         transform="matrix(-0.4,0,0,-0.4,-4,0)"
         style="fill:context-stroke;fill-rule:evenodd;stroke:context-stroke;stroke-width:1pt"
         d="M 0,0 5,-5 -12.5,0 5,5 Z"
         id="path2531-6-1-9-2-5-2-1-3-4" />
    </marker>
    <marker
       style="overflow:visible"
       id="Arrow1Mend-60-6-7-0-7-2-6-9-8"
       refX="0"
       refY="0"
       orient="auto"
       inkscape:stockid="Arrow1Mend"
       inkscape:isstock="true">
      <path
         transform="matrix(-0.4,0,0,-0.4,-4,0)"
         style="fill:context-stroke;fill-rule:evenodd;stroke:context-stroke;stroke-width:1pt"
         d="M 0,0 5,-5 -12.5,0 5,5 Z"
         id="path2531-6-1-9-2-5-2-1-3-45" />
    </marker>
    <marker
       style="overflow:visible"
       id="Arrow1Mend-60-6-7-0-7-2-6-9-3"
       refX="0"
       refY="0"
       orient="auto"
       inkscape:stockid="Arrow1Mend"
       inkscape:isstock="true">
      <path
         transform="matrix(-0.4,0,0,-0.4,-4,0)"
         style="fill:context-stroke;fill-rule:evenodd;stroke:context-stroke;stroke-width:1pt"
         d="M 0,0 5,-5 -12.5,0 5,5 Z"
         id="path2531-6-1-9-2-5-2-1-3-6" />
    </marker>
    <marker
       style="overflow:visible"
       id="Arrow1Mend-60-6-7-0-7-2-6-9-3-0"
       refX="0"
       refY="0"
       orient="auto"
       inkscape:stockid="Arrow1Mend"
       inkscape:isstock="true">
      <path
         transform="matrix(-0.4,0,0,-0.4,-4,0)"
         style="fill:context-stroke;fill-rule:evenodd;stroke:context-stroke;stroke-width:1pt"
         d="M 0,0 5,-5 -12.5,0 5,5 Z"
         id="path2531-6-1-9-2-5-2-1-3-6-6" />
    </marker>
    <g
       id="g4265">
      <symbol
         overflow="visible"
         id="symbol6900">
        <path
           style="stroke:none;"
           d=""
           id="path3986" />
      </symbol>
      <symbol
         overflow="visible"
         id="symbol1328">
        <path
           style="stroke:none;"
           d="M 4.5 -4.296875 C 4.5 -4.34375 4.46875 -4.390625 4.40625 -4.390625 C 4.296875 -4.390625 3.890625 -4 3.734375 -3.703125 C 3.515625 -4.25 3.125 -4.40625 2.796875 -4.40625 C 1.625 -4.40625 0.40625 -2.9375 0.40625 -1.484375 C 0.40625 -0.515625 0.984375 0.109375 1.71875 0.109375 C 2.140625 0.109375 2.53125 -0.125 2.890625 -0.484375 C 2.796875 -0.140625 2.46875 1.203125 2.4375 1.296875 C 2.359375 1.578125 2.28125 1.609375 1.71875 1.625 C 1.59375 1.625 1.5 1.625 1.5 1.828125 C 1.5 1.828125 1.5 1.9375 1.625 1.9375 C 1.9375 1.9375 2.296875 1.90625 2.625 1.90625 C 2.953125 1.90625 3.3125 1.9375 3.65625 1.9375 C 3.703125 1.9375 3.828125 1.9375 3.828125 1.734375 C 3.828125 1.625 3.734375 1.625 3.5625 1.625 C 3.09375 1.625 3.09375 1.5625 3.09375 1.46875 C 3.09375 1.390625 3.109375 1.328125 3.125 1.25 Z M 1.75 -0.109375 C 1.140625 -0.109375 1.109375 -0.875 1.109375 -1.046875 C 1.109375 -1.53125 1.390625 -2.609375 1.5625 -3.03125 C 1.875 -3.765625 2.390625 -4.1875 2.796875 -4.1875 C 3.453125 -4.1875 3.59375 -3.375 3.59375 -3.3125 C 3.59375 -3.25 3.046875 -1.0625 3.015625 -1.03125 C 2.859375 -0.75 2.296875 -0.109375 1.75 -0.109375 Z M 1.75 -0.109375 "
           id="path757" />
      </symbol>
      <symbol
         overflow="visible"
         id="symbol2200">
        <path
           style="stroke:none;"
           d="M 6.265625 -5.671875 C 6.75 -6.453125 7.171875 -6.484375 7.53125 -6.5 C 7.65625 -6.515625 7.671875 -6.671875 7.671875 -6.6875 C 7.671875 -6.765625 7.609375 -6.8125 7.53125 -6.8125 C 7.28125 -6.8125 6.984375 -6.78125 6.71875 -6.78125 C 6.390625 -6.78125 6.046875 -6.8125 5.734375 -6.8125 C 5.671875 -6.8125 5.546875 -6.8125 5.546875 -6.625 C 5.546875 -6.515625 5.625 -6.5 5.703125 -6.5 C 5.96875 -6.484375 6.15625 -6.375 6.15625 -6.171875 C 6.15625 -6.015625 6.015625 -5.796875 6.015625 -5.796875 L 2.953125 -0.921875 L 2.265625 -6.203125 C 2.265625 -6.375 2.5 -6.5 2.953125 -6.5 C 3.09375 -6.5 3.203125 -6.5 3.203125 -6.703125 C 3.203125 -6.78125 3.125 -6.8125 3.078125 -6.8125 C 2.671875 -6.8125 2.25 -6.78125 1.828125 -6.78125 C 1.65625 -6.78125 1.46875 -6.78125 1.28125 -6.78125 C 1.109375 -6.78125 0.921875 -6.8125 0.75 -6.8125 C 0.671875 -6.8125 0.5625 -6.8125 0.5625 -6.625 C 0.5625 -6.5 0.640625 -6.5 0.8125 -6.5 C 1.359375 -6.5 1.375 -6.40625 1.40625 -6.15625 L 2.1875 -0.015625 C 2.21875 0.1875 2.265625 0.21875 2.390625 0.21875 C 2.546875 0.21875 2.59375 0.171875 2.671875 0.046875 Z M 6.265625 -5.671875 "
           id="path282" />
      </symbol>
      <symbol
         overflow="visible"
         id="symbol3957">
        <path
           style="stroke:none;"
           d="M 2.625 -4.359375 C 1.390625 -4.0625 0.421875 -2.765625 0.421875 -1.5625 C 0.421875 -0.59375 1.0625 0.125 2 0.125 C 3.15625 0.125 3.984375 -1.453125 3.984375 -2.828125 C 3.984375 -3.734375 3.59375 -4.234375 3.25 -4.671875 C 2.890625 -5.125 2.296875 -5.875 2.296875 -6.3125 C 2.296875 -6.53125 2.5 -6.765625 2.84375 -6.765625 C 3.15625 -6.765625 3.34375 -6.640625 3.5625 -6.5 C 3.765625 -6.375 3.953125 -6.25 4.109375 -6.25 C 4.359375 -6.25 4.5 -6.484375 4.5 -6.65625 C 4.5 -6.875 4.34375 -6.890625 3.984375 -6.984375 C 3.46875 -7.09375 3.328125 -7.09375 3.171875 -7.09375 C 2.390625 -7.09375 2.03125 -6.65625 2.03125 -6.0625 C 2.03125 -5.515625 2.328125 -4.96875 2.625 -4.359375 Z M 2.75 -4.140625 C 3 -3.671875 3.296875 -3.140625 3.296875 -2.421875 C 3.296875 -1.765625 2.921875 -0.09375 2 -0.09375 C 1.453125 -0.09375 1.03125 -0.515625 1.03125 -1.28125 C 1.03125 -1.90625 1.40625 -3.78125 2.75 -4.140625 Z M 2.75 -4.140625 "
           id="path6571" />
      </symbol>
      <symbol
         overflow="visible"
         id="symbol5801">
        <path
           style="stroke:none;"
           d=""
           id="path5095" />
      </symbol>
      <symbol
         overflow="visible"
         id="symbol3101">
        <path
           style="stroke:none;"
           d="M 2.015625 -3.296875 C 2.078125 -3.40625 2.078125 -3.46875 2.078125 -3.515625 C 2.078125 -3.734375 1.890625 -3.890625 1.671875 -3.890625 C 1.40625 -3.890625 1.328125 -3.671875 1.296875 -3.5625 L 0.375 -0.546875 C 0.359375 -0.53125 0.328125 -0.453125 0.328125 -0.4375 C 0.328125 -0.359375 0.546875 -0.28125 0.609375 -0.28125 C 0.65625 -0.28125 0.65625 -0.296875 0.703125 -0.40625 Z M 2.015625 -3.296875 "
           id="path4617" />
      </symbol>
      <symbol
         overflow="visible"
         id="symbol3072">
        <path
           style="stroke:none;"
           d=""
           id="path339" />
      </symbol>
      <symbol
         overflow="visible"
         id="symbol2850">
        <path
           style="stroke:none;"
           d="M 1.5625 -1.59375 C 1.75 -1.59375 2.3125 -1.609375 2.6875 -1.734375 C 3.203125 -1.921875 3.296875 -2.25 3.296875 -2.453125 C 3.296875 -2.84375 2.90625 -3.078125 2.4375 -3.078125 C 1.59375 -3.078125 0.46875 -2.4375 0.46875 -1.234375 C 0.46875 -0.53125 0.90625 0.0625 1.71875 0.0625 C 2.90625 0.0625 3.453125 -0.625 3.453125 -0.71875 C 3.453125 -0.765625 3.390625 -0.84375 3.328125 -0.84375 C 3.296875 -0.84375 3.28125 -0.828125 3.21875 -0.765625 C 2.671875 -0.125 1.859375 -0.125 1.734375 -0.125 C 1.3125 -0.125 1.03125 -0.40625 1.03125 -0.96875 C 1.03125 -1.0625 1.03125 -1.203125 1.125 -1.59375 Z M 1.171875 -1.78125 C 1.46875 -2.796875 2.234375 -2.875 2.4375 -2.875 C 2.734375 -2.875 3 -2.71875 3 -2.453125 C 3 -1.78125 1.8125 -1.78125 1.515625 -1.78125 Z M 1.171875 -1.78125 "
           id="path156" />
      </symbol>
    </g>
    <g
       id="g5220">
      <symbol
         overflow="visible"
         id="symbol3824">
        <path
           style="stroke:none;"
           d=""
           id="path3212" />
      </symbol>
      <symbol
         overflow="visible"
         id="symbol361">
        <path
           style="stroke:none;"
           d="M 5.8125 -4 C 5.875 -4.265625 6 -4.5 6.546875 -4.515625 C 6.578125 -4.515625 6.6875 -4.515625 6.6875 -4.65625 C 6.6875 -4.703125 6.65625 -4.765625 6.578125 -4.765625 C 6.359375 -4.765625 6.09375 -4.734375 5.859375 -4.734375 C 5.6875 -4.734375 5.296875 -4.765625 5.125 -4.765625 C 5.09375 -4.765625 4.984375 -4.765625 4.984375 -4.609375 C 4.984375 -4.515625 5.078125 -4.515625 5.140625 -4.515625 C 5.46875 -4.5 5.578125 -4.390625 5.578125 -4.21875 C 5.578125 -4.171875 5.578125 -4.125 5.546875 -4.0625 L 4.796875 -1.015625 L 3.03125 -4.640625 C 2.96875 -4.765625 2.953125 -4.765625 2.78125 -4.765625 L 1.828125 -4.765625 C 1.703125 -4.765625 1.609375 -4.765625 1.609375 -4.609375 C 1.609375 -4.515625 1.6875 -4.515625 1.84375 -4.515625 C 1.984375 -4.515625 2.140625 -4.5 2.28125 -4.46875 L 1.359375 -0.75 C 1.296875 -0.484375 1.171875 -0.265625 0.625 -0.25 C 0.578125 -0.25 0.484375 -0.25 0.484375 -0.109375 C 0.484375 -0.03125 0.53125 0 0.578125 0 C 0.8125 0 1.078125 -0.03125 1.3125 -0.03125 C 1.484375 -0.03125 1.875 0 2.046875 0 C 2.125 0 2.1875 -0.03125 2.1875 -0.140625 C 2.1875 -0.25 2.109375 -0.25 2.03125 -0.25 C 1.59375 -0.265625 1.59375 -0.453125 1.59375 -0.546875 C 1.59375 -0.578125 1.59375 -0.609375 1.609375 -0.71875 L 2.515625 -4.28125 L 4.546875 -0.125 C 4.59375 0 4.625 0 4.703125 0 C 4.8125 0 4.8125 -0.015625 4.84375 -0.140625 Z M 5.8125 -4 "
           id="path8958" />
      </symbol>
      <symbol
         overflow="visible"
         id="symbol302">
        <path
           style="stroke:none;"
           d="M 2.953125 -1.125 C 2.90625 -0.984375 2.84375 -0.71875 2.84375 -0.71875 C 2.703125 -0.5 2.421875 -0.125 2 -0.125 C 1.515625 -0.125 1.515625 -0.578125 1.515625 -0.703125 C 1.515625 -1.109375 1.703125 -1.609375 1.90625 -2.125 C 1.953125 -2.265625 2 -2.359375 2 -2.46875 C 2 -2.84375 1.6875 -3.078125 1.34375 -3.078125 C 0.640625 -3.078125 0.328125 -2.125 0.328125 -2 C 0.328125 -1.921875 0.421875 -1.921875 0.453125 -1.921875 C 0.546875 -1.921875 0.546875 -1.953125 0.578125 -2.03125 C 0.734375 -2.59375 1.046875 -2.875 1.3125 -2.875 C 1.4375 -2.875 1.484375 -2.796875 1.484375 -2.640625 C 1.484375 -2.46875 1.4375 -2.328125 1.359375 -2.171875 C 0.984375 -1.203125 0.984375 -1 0.984375 -0.8125 C 0.984375 -0.703125 0.984375 -0.375 1.25 -0.15625 C 1.453125 0.015625 1.71875 0.0625 1.96875 0.0625 C 2.40625 0.0625 2.640625 -0.171875 2.875 -0.390625 C 3.03125 0.0625 3.484375 0.0625 3.578125 0.0625 C 3.8125 0.0625 4 -0.0625 4.125 -0.296875 C 4.28125 -0.578125 4.375 -0.96875 4.375 -1 C 4.375 -1.09375 4.28125 -1.09375 4.265625 -1.09375 C 4.15625 -1.09375 4.15625 -1.0625 4.109375 -0.875 C 4.015625 -0.546875 3.890625 -0.125 3.59375 -0.125 C 3.421875 -0.125 3.359375 -0.28125 3.359375 -0.46875 C 3.359375 -0.578125 3.421875 -0.84375 3.46875 -1.015625 C 3.515625 -1.203125 3.59375 -1.484375 3.625 -1.640625 L 3.78125 -2.265625 C 3.828125 -2.4375 3.90625 -2.75 3.90625 -2.78125 C 3.90625 -2.921875 3.796875 -3 3.671875 -3 C 3.421875 -3 3.359375 -2.796875 3.3125 -2.578125 Z M 2.953125 -1.125 "
           id="path9275" />
      </symbol>
      <symbol
         overflow="visible"
         id="symbol1556">
        <path
           style="stroke:none;"
           d="M 1.734375 -0.734375 C 1.671875 -0.5 1.4375 -0.125 1.078125 -0.125 C 1.0625 -0.125 0.84375 -0.125 0.703125 -0.21875 C 0.984375 -0.3125 1.015625 -0.5625 1.015625 -0.609375 C 1.015625 -0.765625 0.890625 -0.859375 0.734375 -0.859375 C 0.53125 -0.859375 0.328125 -0.703125 0.328125 -0.4375 C 0.328125 -0.09375 0.71875 0.0625 1.0625 0.0625 C 1.390625 0.0625 1.671875 -0.125 1.84375 -0.421875 C 2.015625 -0.0625 2.390625 0.0625 2.671875 0.0625 C 3.484375 0.0625 3.90625 -0.796875 3.90625 -1 C 3.90625 -1.09375 3.8125 -1.09375 3.796875 -1.09375 C 3.6875 -1.09375 3.6875 -1.046875 3.65625 -0.96875 C 3.515625 -0.484375 3.09375 -0.125 2.703125 -0.125 C 2.421875 -0.125 2.28125 -0.3125 2.28125 -0.578125 C 2.28125 -0.765625 2.453125 -1.390625 2.640625 -2.171875 C 2.78125 -2.703125 3.09375 -2.875 3.328125 -2.875 C 3.34375 -2.875 3.546875 -2.875 3.703125 -2.78125 C 3.484375 -2.71875 3.390625 -2.515625 3.390625 -2.390625 C 3.390625 -2.25 3.515625 -2.140625 3.671875 -2.140625 C 3.828125 -2.140625 4.0625 -2.265625 4.0625 -2.5625 C 4.0625 -2.953125 3.609375 -3.078125 3.34375 -3.078125 C 2.984375 -3.078125 2.703125 -2.84375 2.5625 -2.578125 C 2.4375 -2.859375 2.109375 -3.078125 1.71875 -3.078125 C 0.9375 -3.078125 0.5 -2.21875 0.5 -2 C 0.5 -1.921875 0.59375 -1.921875 0.609375 -1.921875 C 0.703125 -1.921875 0.703125 -1.9375 0.75 -2.03125 C 0.921875 -2.578125 1.359375 -2.875 1.703125 -2.875 C 1.9375 -2.875 2.125 -2.75 2.125 -2.421875 C 2.125 -2.28125 2.03125 -1.9375 1.96875 -1.6875 Z M 1.734375 -0.734375 "
           id="path8544" />
      </symbol>
      <symbol
         overflow="visible"
         id="symbol3601">
        <path
           style="stroke:none;"
           d="M 1.3125 -0.546875 C 1.265625 -0.3125 1.25 -0.25 0.703125 -0.25 C 0.578125 -0.25 0.5 -0.25 0.5 -0.09375 C 0.5 0 0.578125 0 0.703125 0 L 3.1875 0 C 4.734375 0 6.21875 -1.421875 6.21875 -2.9375 C 6.21875 -3.953125 5.515625 -4.765625 4.390625 -4.765625 L 1.84375 -4.765625 C 1.703125 -4.765625 1.625 -4.765625 1.625 -4.609375 C 1.625 -4.515625 1.703125 -4.515625 1.859375 -4.515625 C 1.96875 -4.515625 2 -4.515625 2.125 -4.5 C 2.265625 -4.484375 2.265625 -4.46875 2.265625 -4.390625 C 2.265625 -4.390625 2.265625 -4.34375 2.25 -4.25 Z M 2.875 -4.265625 C 2.9375 -4.484375 2.9375 -4.515625 3.234375 -4.515625 L 4.125 -4.515625 C 4.90625 -4.515625 5.5625 -4.125 5.5625 -3.171875 C 5.5625 -3.015625 5.484375 -1.8125 4.796875 -1.015625 C 4.515625 -0.703125 3.921875 -0.25 3.0625 -0.25 L 2.125 -0.25 C 1.90625 -0.25 1.890625 -0.265625 1.890625 -0.328125 C 1.890625 -0.328125 1.890625 -0.359375 1.921875 -0.46875 Z M 2.875 -4.265625 "
           id="path1559" />
      </symbol>
      <symbol
         overflow="visible"
         id="symbol4809">
        <path
           style="stroke:none;"
           d=""
           id="path3933" />
      </symbol>
      <symbol
         overflow="visible"
         id="symbol3796">
        <path
           style="stroke:none;"
           d="M 3.4375 -1.375 C 3.3125 -1.5 3.25 -1.578125 3.125 -1.6875 C 2.984375 -1.828125 2.5 -2.203125 1.828125 -2.203125 C 1.140625 -2.203125 0.625 -1.6875 0.625 -1.078125 C 0.625 -0.453125 1.140625 0.0625 1.8125 0.0625 C 2.1875 0.0625 2.78125 -0.078125 3.34375 -0.78125 C 3.46875 -0.640625 3.53125 -0.578125 3.65625 -0.453125 C 3.796875 -0.3125 4.28125 0.0625 4.953125 0.0625 C 5.640625 0.0625 6.15625 -0.453125 6.15625 -1.078125 C 6.15625 -1.6875 5.640625 -2.203125 4.96875 -2.203125 C 4.59375 -2.203125 4 -2.0625 3.4375 -1.375 Z M 3.625 -1.171875 C 3.9375 -1.609375 4.453125 -1.984375 5.015625 -1.984375 C 5.546875 -1.984375 5.984375 -1.578125 5.984375 -1.078125 C 5.984375 -0.609375 5.5625 -0.265625 5.046875 -0.265625 C 4.875 -0.265625 4.609375 -0.28125 4.171875 -0.640625 C 3.984375 -0.796875 3.828125 -0.984375 3.625 -1.171875 Z M 3.15625 -0.96875 C 2.84375 -0.546875 2.34375 -0.171875 1.765625 -0.171875 C 1.234375 -0.171875 0.796875 -0.5625 0.796875 -1.078125 C 0.796875 -1.546875 1.21875 -1.890625 1.734375 -1.890625 C 1.90625 -1.890625 2.171875 -1.875 2.609375 -1.515625 C 2.8125 -1.34375 2.953125 -1.171875 3.15625 -0.96875 Z M 3.15625 -0.96875 "
           id="path9665" />
      </symbol>
      <symbol
         overflow="visible"
         id="symbol7222">
        <path
           style="stroke:none;"
           d=""
           id="path1540" />
      </symbol>
      <symbol
         overflow="visible"
         id="symbol3571">
        <path
           style="stroke:none;"
           d="M 3.015625 -3.15625 L 4.71875 -3.15625 C 6.125 -3.15625 7.515625 -4.1875 7.515625 -5.296875 C 7.515625 -6.078125 6.859375 -6.8125 5.546875 -6.8125 L 2.328125 -6.8125 C 2.140625 -6.8125 2.03125 -6.8125 2.03125 -6.625 C 2.03125 -6.5 2.109375 -6.5 2.3125 -6.5 C 2.4375 -6.5 2.625 -6.484375 2.734375 -6.484375 C 2.90625 -6.453125 2.953125 -6.4375 2.953125 -6.3125 C 2.953125 -6.28125 2.953125 -6.25 2.921875 -6.125 L 1.578125 -0.78125 C 1.484375 -0.390625 1.46875 -0.3125 0.671875 -0.3125 C 0.515625 -0.3125 0.40625 -0.3125 0.40625 -0.125 C 0.40625 0 0.515625 0 0.546875 0 C 0.828125 0 1.53125 -0.03125 1.8125 -0.03125 C 2.03125 -0.03125 2.25 -0.015625 2.453125 -0.015625 C 2.671875 -0.015625 2.890625 0 3.09375 0 C 3.171875 0 3.296875 0 3.296875 -0.203125 C 3.296875 -0.3125 3.203125 -0.3125 3.015625 -0.3125 C 2.65625 -0.3125 2.375 -0.3125 2.375 -0.484375 C 2.375 -0.546875 2.390625 -0.59375 2.40625 -0.65625 Z M 3.734375 -6.125 C 3.828125 -6.46875 3.84375 -6.5 4.28125 -6.5 L 5.234375 -6.5 C 6.0625 -6.5 6.59375 -6.234375 6.59375 -5.546875 C 6.59375 -5.15625 6.390625 -4.296875 6 -3.9375 C 5.5 -3.484375 4.90625 -3.40625 4.46875 -3.40625 L 3.0625 -3.40625 Z M 3.734375 -6.125 "
           id="path6317" />
      </symbol>
      <symbol
         overflow="visible"
         id="symbol9048">
        <path
           style="stroke:none;"
           d="M 0.875 -0.59375 C 0.84375 -0.4375 0.78125 -0.203125 0.78125 -0.15625 C 0.78125 0.015625 0.921875 0.109375 1.078125 0.109375 C 1.203125 0.109375 1.375 0.03125 1.453125 -0.171875 C 1.46875 -0.203125 1.796875 -1.5625 1.84375 -1.75 C 1.921875 -2.078125 2.109375 -2.765625 2.15625 -3.046875 C 2.203125 -3.171875 2.484375 -3.640625 2.71875 -3.859375 C 2.796875 -3.921875 3.09375 -4.1875 3.515625 -4.1875 C 3.78125 -4.1875 3.921875 -4.0625 3.9375 -4.0625 C 3.640625 -4.015625 3.421875 -3.78125 3.421875 -3.515625 C 3.421875 -3.359375 3.53125 -3.171875 3.796875 -3.171875 C 4.0625 -3.171875 4.34375 -3.40625 4.34375 -3.765625 C 4.34375 -4.109375 4.03125 -4.40625 3.515625 -4.40625 C 2.875 -4.40625 2.4375 -3.921875 2.25 -3.640625 C 2.15625 -4.09375 1.796875 -4.40625 1.328125 -4.40625 C 0.875 -4.40625 0.6875 -4.015625 0.59375 -3.84375 C 0.421875 -3.5 0.296875 -2.90625 0.296875 -2.875 C 0.296875 -2.765625 0.390625 -2.765625 0.40625 -2.765625 C 0.515625 -2.765625 0.515625 -2.78125 0.578125 -3 C 0.75 -3.703125 0.953125 -4.1875 1.3125 -4.1875 C 1.46875 -4.1875 1.609375 -4.109375 1.609375 -3.734375 C 1.609375 -3.515625 1.578125 -3.40625 1.453125 -2.890625 Z M 0.875 -0.59375 "
           id="path2436" />
      </symbol>
      <symbol
         overflow="visible"
         id="symbol1907">
        <path
           style="stroke:none;"
           d="M 1.90625 -0.53125 C 1.90625 -0.8125 1.671875 -1.0625 1.390625 -1.0625 C 1.09375 -1.0625 0.859375 -0.8125 0.859375 -0.53125 C 0.859375 -0.234375 1.09375 0 1.390625 0 C 1.671875 0 1.90625 -0.234375 1.90625 -0.53125 Z M 1.90625 -0.53125 "
           id="path2242" />
      </symbol>
      <symbol
         overflow="visible"
         id="symbol3398">
        <path
           style="stroke:none;"
           d=""
           id="path2805" />
      </symbol>
      <symbol
         overflow="visible"
         id="symbol9161">
        <path
           style="stroke:none;"
           d="M 6.84375 -3.265625 C 7 -3.265625 7.1875 -3.265625 7.1875 -3.453125 C 7.1875 -3.65625 7 -3.65625 6.859375 -3.65625 L 0.890625 -3.65625 C 0.75 -3.65625 0.5625 -3.65625 0.5625 -3.453125 C 0.5625 -3.265625 0.75 -3.265625 0.890625 -3.265625 Z M 6.859375 -1.328125 C 7 -1.328125 7.1875 -1.328125 7.1875 -1.53125 C 7.1875 -1.71875 7 -1.71875 6.84375 -1.71875 L 0.890625 -1.71875 C 0.75 -1.71875 0.5625 -1.71875 0.5625 -1.53125 C 0.5625 -1.328125 0.75 -1.328125 0.890625 -1.328125 Z M 6.859375 -1.328125 "
           id="path2893" />
      </symbol>
      <symbol
         overflow="visible"
         id="symbol9305">
        <path
           style="stroke:none;"
           d="M 4.578125 -3.1875 C 4.578125 -3.984375 4.53125 -4.78125 4.1875 -5.515625 C 3.734375 -6.484375 2.90625 -6.640625 2.5 -6.640625 C 1.890625 -6.640625 1.171875 -6.375 0.75 -5.453125 C 0.4375 -4.765625 0.390625 -3.984375 0.390625 -3.1875 C 0.390625 -2.4375 0.421875 -1.546875 0.84375 -0.78125 C 1.265625 0.015625 2 0.21875 2.484375 0.21875 C 3.015625 0.21875 3.78125 0.015625 4.21875 -0.9375 C 4.53125 -1.625 4.578125 -2.40625 4.578125 -3.1875 Z M 2.484375 0 C 2.09375 0 1.5 -0.25 1.328125 -1.203125 C 1.21875 -1.796875 1.21875 -2.71875 1.21875 -3.3125 C 1.21875 -3.953125 1.21875 -4.609375 1.296875 -5.140625 C 1.484375 -6.328125 2.234375 -6.421875 2.484375 -6.421875 C 2.8125 -6.421875 3.46875 -6.234375 3.65625 -5.25 C 3.765625 -4.6875 3.765625 -3.9375 3.765625 -3.3125 C 3.765625 -2.5625 3.765625 -1.890625 3.65625 -1.25 C 3.5 -0.296875 2.9375 0 2.484375 0 Z M 2.484375 0 "
           id="path2765" />
      </symbol>
      <symbol
         overflow="visible"
         id="symbol7337">
        <path
           style="stroke:none;"
           d="M 2.9375 -6.375 C 2.9375 -6.625 2.9375 -6.640625 2.703125 -6.640625 C 2.078125 -6 1.203125 -6 0.890625 -6 L 0.890625 -5.6875 C 1.09375 -5.6875 1.671875 -5.6875 2.1875 -5.953125 L 2.1875 -0.78125 C 2.1875 -0.421875 2.15625 -0.3125 1.265625 -0.3125 L 0.953125 -0.3125 L 0.953125 0 C 1.296875 -0.03125 2.15625 -0.03125 2.5625 -0.03125 C 2.953125 -0.03125 3.828125 -0.03125 4.171875 0 L 4.171875 -0.3125 L 3.859375 -0.3125 C 2.953125 -0.3125 2.9375 -0.421875 2.9375 -0.78125 Z M 2.9375 -6.375 "
           id="path978" />
      </symbol>
      <symbol
         overflow="visible"
         id="symbol5130">
        <path
           style="stroke:none;"
           d="M 4.75 -6.078125 C 4.828125 -6.1875 4.828125 -6.203125 4.828125 -6.421875 L 2.40625 -6.421875 C 1.203125 -6.421875 1.171875 -6.546875 1.140625 -6.734375 L 0.890625 -6.734375 L 0.5625 -4.6875 L 0.8125 -4.6875 C 0.84375 -4.84375 0.921875 -5.46875 1.0625 -5.59375 C 1.125 -5.65625 1.90625 -5.65625 2.03125 -5.65625 L 4.09375 -5.65625 C 3.984375 -5.5 3.203125 -4.40625 2.984375 -4.078125 C 2.078125 -2.734375 1.75 -1.34375 1.75 -0.328125 C 1.75 -0.234375 1.75 0.21875 2.21875 0.21875 C 2.671875 0.21875 2.671875 -0.234375 2.671875 -0.328125 L 2.671875 -0.84375 C 2.671875 -1.390625 2.703125 -1.9375 2.78125 -2.46875 C 2.828125 -2.703125 2.953125 -3.5625 3.40625 -4.171875 Z M 4.75 -6.078125 "
           id="path8047" />
      </symbol>
    </g>
  </defs>
  <sodipodi:namedview
     id="base"
     pagecolor="#ffffff"
     bordercolor="#666666"
     borderopacity="1.0"
     inkscape:pageopacity="1"
     inkscape:pageshadow="2"
     inkscape:zoom="0.7"
     inkscape:cx="259.28571"
     inkscape:cy="263.57143"
     inkscape:document-units="mm"
     inkscape:current-layer="g1636"
     showgrid="false"
     units="px"
     inkscape:window-width="1366"
     inkscape:window-height="648"
     inkscape:window-x="0"
     inkscape:window-y="32"
     inkscape:window-maximized="1"
     inkscape:pagecheckerboard="0"
     showguides="false" />
  <metadata
     id="metadata5">
    <rdf:RDF>
      <cc:Work
         rdf:about="">
        <dc:format>image/svg+xml</dc:format>
        <dc:type
           rdf:resource="http://purl.org/dc/dcmitype/StillImage" />
      </cc:Work>
    </rdf:RDF>
  </metadata>
  <g
     inkscape:label="Layer 1"
     inkscape:groupmode="layer"
     id="layer1"
     transform="translate(0, -191.167)">
    <g
       id="g1636"
       transform="translate(95.7631, 208.47)">
      <rect
         style="fill:#ffffff;fill-opacity:1;stroke:#000000;stroke-width:0.465;stroke-opacity:0.0051902"
         id="rect3063"
         width="158.24585"
         height="106.24099"
         x="-94.549576"
         y="-16.835203" />
      <g
         inkscape:label=""
         transform="translate(3.92814, 35.5186)"
         id="g1742" />
      <g
         inkscape:label=""
         transform="translate(-234.33208,-58.229441)"
         id="g28345">
        <g
           id="g3308" />
      </g>
      <rect
         style="fill:none;stroke:#000000;stroke-width:0.665001;stroke-opacity:1"
         id="rect1368"
         width="113.31546"
         height="81.173576"
         x="-65.406746"
         y="-7.9202657" />
      <path
         style="fill:none;stroke:#000000;stroke-width:0.264583px;stroke-linecap:butt;stroke-linejoin:miter;stroke-opacity:1"
         d="M -51.497212,-7.9202658 V 73.253309"
         id="path1425" />
      <path
         style="fill:none;stroke:#000000;stroke-width:0.264583px;stroke-linecap:butt;stroke-linejoin:miter;stroke-opacity:1"
         d="M -37.73887,-7.9202658 V 73.253309"
         id="path1425-3" />
      <path
         style="fill:none;stroke:#000000;stroke-width:0.264583px;stroke-linecap:butt;stroke-linejoin:miter;stroke-opacity:1"
         d="M -23.451361,-7.9202658 V 73.253309"
         id="path1425-3-6" />
      <path
         style="fill:none;stroke:#000000;stroke-width:0.264583px;stroke-linecap:butt;stroke-linejoin:miter;stroke-opacity:1"
         d="M -8.823674,-7.9202658 V 73.253309"
         id="path1425-3-6-7" />
      <path
         style="fill:none;stroke:#000000;stroke-width:0.264583px;stroke-linecap:butt;stroke-linejoin:miter;stroke-opacity:1"
         d="M 4.93466,-7.9202658 V 73.253309"
         id="path1425-3-6-7-5" />
      <path
         style="fill:none;stroke:#000000;stroke-width:0.264583px;stroke-linecap:butt;stroke-linejoin:miter;stroke-opacity:1"
         d="M 19.411154,-7.9202658 V 73.253309"
         id="path1425-3-6-7-5-3" />
      <path
         style="fill:none;stroke:#000000;stroke-width:0.264583px;stroke-linecap:butt;stroke-linejoin:miter;stroke-opacity:1"
         d="M 33.169496,-7.9202658 V 73.253309"
         id="path1425-3-6-7-5-3-5" />
      <path
         style="fill:none;stroke:#000000;stroke-width:0.264583px;stroke-linecap:butt;stroke-linejoin:miter;stroke-opacity:1"
         d="M -65.406745,5.8380683 H 47.908712"
         id="path1732" />
      <path
         style="fill:none;stroke:#000000;stroke-width:0.264583px;stroke-linecap:butt;stroke-linejoin:miter;stroke-opacity:1"
         d="M -65.406745,19.596408 H 47.908712"
         id="path1732-6" />
      <path
         style="fill:none;stroke:#000000;stroke-width:0.264583px;stroke-linecap:butt;stroke-linejoin:miter;stroke-opacity:1"
         d="M -65.406745,32.825583 H 47.908712"
         id="path1732-2" />
      <path
         style="fill:none;stroke:#000000;stroke-width:0.264583px;stroke-linecap:butt;stroke-linejoin:miter;stroke-opacity:1"
         d="M -65.406745,46.583925 H 47.908712"
         id="path1732-9" />
      <path
         style="fill:none;stroke:#000000;stroke-width:0.264583px;stroke-linecap:butt;stroke-linejoin:miter;stroke-opacity:1"
         d="M -65.406745,59.8131 H 47.908712"
         id="path1732-1" />
      <path
         style="fill:none;stroke:#000000;stroke-width:0.565;stroke-linecap:butt;stroke-linejoin:miter;stroke-miterlimit:4;stroke-dasharray:none;stroke-opacity:1"
         d="M -41.321598,-7.5638691 C -30.189601,27.11105 -16.745089,60.593361 47.740437,67.752868"
         id="path2044"
         sodipodi:nodetypes="cc" />
      <path
         style="fill:none;stroke:#000000;stroke-width:0.565;stroke-linecap:butt;stroke-linejoin:miter;stroke-miterlimit:4;stroke-dasharray:none;stroke-opacity:1"
         d="M -55.897491,24.998535 C -40.041812,74.110796 0.81806248,67.374757 47.908712,73.253309"
         id="path2046"
         sodipodi:nodetypes="cc" />
      <path
         style="fill:none;stroke:#000000;stroke-width:0.565;stroke-linecap:butt;stroke-linejoin:miter;stroke-miterlimit:4;stroke-dasharray:none;stroke-opacity:1"
         d="m -46.920353,65.348615 c 25.710128,6.929133 60.524598,7.231299 94.829062,7.904694"
         id="path2050"
         sodipodi:nodetypes="cc" />
      <g
         inkscape:label=""
         transform="matrix(0.71376901,0,0,0.71376901,-103.07224,43.190191)"
         id="g3432">
        <g
           id="g5147">
          <g
             style="fill:#000000;fill-opacity:1"
             id="g1982"
             transform="rotate(-90,22.852242,66.282346)">
            <use
               xlink:href="#symbol361"
               x="96.760002"
               y="78.040001"
               id="use7274"
               width="100%"
               height="100%" />
          </g>
          <g
             style="fill:#000000;fill-opacity:1"
             id="g6806"
             transform="rotate(-90,22.852242,66.282346)">
            <use
               xlink:href="#symbol302"
               x="103.81679"
               y="78.040001"
               id="use3685"
               width="100%"
               height="100%" />
          </g>
          <path
             style="fill:none;stroke:#000000;stroke-width:0.398;stroke-linecap:butt;stroke-linejoin:miter;stroke-miterlimit:10;stroke-opacity:1"
             d="M 36.042552,-3.9865064 V -23.033381"
             id="path8970" />
          <g
             style="fill:#000000;fill-opacity:1"
             id="g8090"
             transform="rotate(-90,22.852242,66.282346)">
            <use
               xlink:href="#symbol361"
               x="93.121002"
               y="85.398003"
               id="use6680"
               width="100%"
               height="100%" />
          </g>
          <g
             style="fill:#000000;fill-opacity:1"
             id="g8128"
             transform="rotate(-90,22.852242,66.282346)">
            <use
               xlink:href="#symbol302"
               x="100.17779"
               y="85.398003"
               id="use7703"
               width="100%"
               height="100%" />
          </g>
          <g
             style="fill:#000000;fill-opacity:1"
             id="g9893"
             transform="rotate(-90,22.852242,66.282346)">
            <use
               xlink:href="#symbol3796"
               x="104.889"
               y="86.394997"
               id="use8648"
               width="100%"
               height="100%" />
          </g>
          <g
             style="fill:#000000;fill-opacity:1"
             id="g6195"
             transform="translate(15.48007,-26.077109)">
            <use
               xlink:href="#symbol1556"
               x="115.664"
               y="78.040001"
               id="use8368"
               width="100%"
               height="100%" />
          </g>
          <path
             style="fill:none;stroke:#000000;stroke-width:0.398;stroke-linecap:butt;stroke-linejoin:miter;stroke-miterlimit:10;stroke-opacity:1"
             d="m 130.03866,53.395548 h 6.73047"
             id="path3109" />
          <g
             style="fill:#000000;fill-opacity:1"
             id="g4790"
             transform="translate(15.48007,-26.077109)">
            <use
               xlink:href="#symbol3601"
               x="114.559"
               y="85.398003"
               id="use6368"
               width="100%"
               height="100%" />
          </g>
          <g
             style="fill:#000000;fill-opacity:1"
             id="g5862"
             transform="translate(13.075359,-97.609174)">
            <use
               xlink:href="#symbol3571"
               x="122.483"
               y="81.962997"
               id="use2329"
               width="100%"
               height="100%" />
          </g>
          <g
             style="fill:#000000;fill-opacity:1"
             id="g6951"
             transform="translate(13.075359,-97.609174)">
            <use
               xlink:href="#symbol9048"
               x="130.26379"
               y="81.962997"
               id="use1305"
               width="100%"
               height="100%" />
          </g>
          <g
             style="fill:#000000;fill-opacity:1"
             id="g2801"
             transform="translate(13.075359,-97.609174)">
            <use
               xlink:href="#symbol9161"
               x="137.802"
               y="81.962997"
               id="use1177"
               width="100%"
               height="100%" />
          </g>
          <g
             style="fill:#000000;fill-opacity:1"
             id="g4413"
             transform="translate(13.075359,-97.609174)">
            <use
               xlink:href="#symbol9305"
               x="148.32051"
               y="81.962997"
               id="use4743"
               width="100%"
               height="100%" />
          </g>
          <g
             style="fill:#000000;fill-opacity:1"
             id="g814"
             transform="translate(13.075359,-97.609174)">
            <use
               xlink:href="#symbol1907"
               x="153.299"
               y="81.962997"
               id="use4192"
               width="100%"
               height="100%" />
          </g>
          <g
             style="fill:#000000;fill-opacity:1"
             id="g2850"
             transform="translate(13.075359,-97.609174)">
            <use
               xlink:href="#symbol9305"
               x="156.06599"
               y="81.962997"
               id="use1680"
               width="100%"
               height="100%" />
            <use
               xlink:href="#symbol7337"
               x="161.0473"
               y="81.962997"
               id="use8389"
               width="100%"
               height="100%" />
          </g>
          <g
             style="fill:#000000;fill-opacity:1"
             id="g2339"
             transform="translate(-67.243119,-62.551009)">
            <use
               xlink:href="#symbol3571"
               x="166.02901"
               y="81.962997"
               id="use6790"
               width="100%"
               height="100%" />
          </g>
          <g
             style="fill:#000000;fill-opacity:1"
             id="g4820"
             transform="translate(-67.243119,-62.551009)">
            <use
               xlink:href="#symbol9048"
               x="173.80978"
               y="81.962997"
               id="use1332"
               width="100%"
               height="100%" />
          </g>
          <g
             style="fill:#000000;fill-opacity:1"
             id="g9577"
             transform="translate(-67.243119,-62.551009)">
            <use
               xlink:href="#symbol9161"
               x="181.34801"
               y="81.962997"
               id="use5837"
               width="100%"
               height="100%" />
          </g>
          <g
             style="fill:#000000;fill-opacity:1"
             id="g5013"
             transform="translate(-67.243119,-62.551009)">
            <use
               xlink:href="#symbol9305"
               x="191.86652"
               y="81.962997"
               id="use3075"
               width="100%"
               height="100%" />
          </g>
          <g
             style="fill:#000000;fill-opacity:1"
             id="g9554"
             transform="translate(-67.243119,-62.551009)">
            <use
               xlink:href="#symbol1907"
               x="196.845"
               y="81.962997"
               id="use6886"
               width="100%"
               height="100%" />
          </g>
          <g
             style="fill:#000000;fill-opacity:1"
             id="g3209"
             transform="translate(-67.243119,-62.551009)">
            <use
               xlink:href="#symbol5130"
               x="199.61301"
               y="81.962997"
               id="use5480"
               width="100%"
               height="100%" />
          </g>
          <g
             style="fill:#000000;fill-opacity:1"
             id="g7992"
             transform="matrix(0.59972397,0,0,0.59972397,-61.351618,-20.094494)">
            <use
               xlink:href="#symbol3571"
               x="204.59399"
               y="81.962997"
               id="use4687"
               width="100%"
               height="100%" />
          </g>
          <g
             style="fill:#000000;fill-opacity:1"
             id="g5339"
             transform="matrix(0.59972397,0,0,0.59972397,-61.351618,-20.094494)">
            <use
               xlink:href="#symbol9048"
               x="212.37479"
               y="81.962997"
               id="use7009"
               width="100%"
               height="100%" />
          </g>
          <g
             style="fill:#000000;fill-opacity:1"
             id="g5272"
             transform="matrix(0.59972397,0,0,0.59972397,-61.351618,-20.094494)">
            <use
               xlink:href="#symbol9161"
               x="219.91299"
               y="81.962997"
               id="use2177"
               width="100%"
               height="100%" />
          </g>
          <g
             style="fill:#000000;fill-opacity:1"
             id="g1793"
             transform="matrix(0.59972397,0,0,0.59972397,-61.351618,-20.094494)">
            <use
               xlink:href="#symbol7337"
               x="230.43152"
               y="81.962997"
               id="use4396"
               width="100%"
               height="100%" />
            <use
               xlink:href="#symbol9305"
               x="235.41281"
               y="81.962997"
               id="use509"
               width="100%"
               height="100%" />
          </g>
          <g
             style="fill:#000000;fill-opacity:1"
             id="g2486"
             transform="matrix(0.59972397,0,0,0.59972397,-61.351618,-20.094494)">
            <use
               xlink:href="#symbol1907"
               x="240.39101"
               y="81.962997"
               id="use7135"
               width="100%"
               height="100%" />
          </g>
          <g
             style="fill:#000000;fill-opacity:1"
             id="g715"
             transform="matrix(0.59972397,0,0,0.59972397,-61.351618,-20.094494)">
            <use
               xlink:href="#symbol9305"
               x="243.159"
               y="81.962997"
               id="use5554"
               width="100%"
               height="100%" />
          </g>
        </g>
      </g>
    </g>
  </g>
</svg>
